<?xml version="1.0" encoding="utf-8" standalone="no"?>
<!DOCTYPE svg PUBLIC "-//W3C//DTD SVG 1.1//EN"
  "http://www.w3.org/Graphics/SVG/1.1/DTD/svg11.dtd">
<svg xmlns:xlink="http://www.w3.org/1999/xlink" width="460.8pt" height="302.4pt" viewBox="0 0 460.8 302.4" xmlns="http://www.w3.org/2000/svg" version="1.1">
 <metadata>
  <rdf:RDF xmlns:dc="http://purl.org/dc/elements/1.1/" xmlns:cc="http://creativecommons.org/ns#" xmlns:rdf="http://www.w3.org/1999/02/22-rdf-syntax-ns#">
   <cc:Work>
    <dc:type rdf:resource="http://purl.org/dc/dcmitype/StillImage"/>
    <dc:format>image/svg+xml</dc:format>
   </cc:Work>
  </rdf:RDF>
 </metadata>
 <defs>
  <style type="text/css">*{stroke-linejoin: round; stroke-linecap: butt}</style>
 </defs>
 <g id="figure_1">
  <g id="patch_1">
   <path d="M 0 302.4 
L 460.8 302.4 
L 460.8 0 
L 0 0 
z
" style="fill: #ffffff"/>
  </g>
  <g id="axes_1">
   <g id="patch_2">
    <path d="M 49.07 217.02384 
L 419.52 217.02384 
L 419.52 22.92 
L 49.07 22.92 
z
" style="fill: #ffffff"/>
   </g>
   <g id="matplotlib.axis_1">
    <g id="xtick_1">
     <g id="line2d_1">
      <path d="M 69.650556 217.02384 
L 69.650556 22.92 
" clip-path="url(#p9ae05815f2)" style="fill: none; stroke: #b0b0b0; stroke-opacity: 0.3; stroke-width: 0.8; stroke-linecap: square"/>
     </g>
     <g id="line2d_2">
      <defs>
       <path id="m07a69e2dac" d="M 0 0 
L 0 3.5 
" style="stroke: #000000; stroke-width: 0.8"/>
      </defs>
      <g>
       <use xlink:href="#m07a69e2dac" x="69.650556" y="217.02384" style="stroke: #000000; stroke-width: 0.8"/>
      </g>
     </g>
     <g id="text_1">
      <!-- −80 -->
      <g transform="translate(60.153446 230.862434) scale(0.09 -0.09)">
       <defs>
        <path id="DejaVuSans-2212" d="M 678 2272 
L 4684 2272 
L 4684 1741 
L 678 1741 
L 678 2272 
z
" transform="scale(0.015625)"/>
        <path id="DejaVuSans-38" d="M 2034 2216 
Q 1584 2216 1326 1975 
Q 1069 1734 1069 1313 
Q 1069 891 1326 650 
Q 1584 409 2034 409 
Q 2484 409 2743 651 
Q 3003 894 3003 1313 
Q 3003 1734 2745 1975 
Q 2488 2216 2034 2216 
z
M 1403 2484 
Q 997 2584 770 2862 
Q 544 3141 544 3541 
Q 544 4100 942 4425 
Q 1341 4750 2034 4750 
Q 2731 4750 3128 4425 
Q 3525 4100 3525 3541 
Q 3525 3141 3298 2862 
Q 3072 2584 2669 2484 
Q 3125 2378 3379 2068 
Q 3634 1759 3634 1313 
Q 3634 634 3220 271 
Q 2806 -91 2034 -91 
Q 1263 -91 848 271 
Q 434 634 434 1313 
Q 434 1759 690 2068 
Q 947 2378 1403 2484 
z
M 1172 3481 
Q 1172 3119 1398 2916 
Q 1625 2713 2034 2713 
Q 2441 2713 2670 2916 
Q 2900 3119 2900 3481 
Q 2900 3844 2670 4047 
Q 2441 4250 2034 4250 
Q 1625 4250 1398 4047 
Q 1172 3844 1172 3481 
z
" transform="scale(0.015625)"/>
        <path id="DejaVuSans-30" d="M 2034 4250 
Q 1547 4250 1301 3770 
Q 1056 3291 1056 2328 
Q 1056 1369 1301 889 
Q 1547 409 2034 409 
Q 2525 409 2770 889 
Q 3016 1369 3016 2328 
Q 3016 3291 2770 3770 
Q 2525 4250 2034 4250 
z
M 2034 4750 
Q 2819 4750 3233 4129 
Q 3647 3509 3647 2328 
Q 3647 1150 3233 529 
Q 2819 -91 2034 -91 
Q 1250 -91 836 529 
Q 422 1150 422 2328 
Q 422 3509 836 4129 
Q 1250 4750 2034 4750 
z
" transform="scale(0.015625)"/>
       </defs>
       <use xlink:href="#DejaVuSans-2212"/>
       <use xlink:href="#DejaVuSans-38" transform="translate(83.789062 0)"/>
       <use xlink:href="#DejaVuSans-30" transform="translate(147.412109 0)"/>
      </g>
     </g>
    </g>
    <g id="xtick_2">
     <g id="line2d_3">
      <path d="M 110.811667 217.02384 
L 110.811667 22.92 
" clip-path="url(#p9ae05815f2)" style="fill: none; stroke: #b0b0b0; stroke-opacity: 0.3; stroke-width: 0.8; stroke-linecap: square"/>
     </g>
     <g id="line2d_4">
      <g>
       <use xlink:href="#m07a69e2dac" x="110.811667" y="217.02384" style="stroke: #000000; stroke-width: 0.8"/>
      </g>
     </g>
     <g id="text_2">
      <!-- −60 -->
      <g transform="translate(101.314557 230.862434) scale(0.09 -0.09)">
       <defs>
        <path id="DejaVuSans-36" d="M 2113 2584 
Q 1688 2584 1439 2293 
Q 1191 2003 1191 1497 
Q 1191 994 1439 701 
Q 1688 409 2113 409 
Q 2538 409 2786 701 
Q 3034 994 3034 1497 
Q 3034 2003 2786 2293 
Q 2538 2584 2113 2584 
z
M 3366 4563 
L 3366 3988 
Q 3128 4100 2886 4159 
Q 2644 4219 2406 4219 
Q 1781 4219 1451 3797 
Q 1122 3375 1075 2522 
Q 1259 2794 1537 2939 
Q 1816 3084 2150 3084 
Q 2853 3084 3261 2657 
Q 3669 2231 3669 1497 
Q 3669 778 3244 343 
Q 2819 -91 2113 -91 
Q 1303 -91 875 529 
Q 447 1150 447 2328 
Q 447 3434 972 4092 
Q 1497 4750 2381 4750 
Q 2619 4750 2861 4703 
Q 3103 4656 3366 4563 
z
" transform="scale(0.015625)"/>
       </defs>
       <use xlink:href="#DejaVuSans-2212"/>
       <use xlink:href="#DejaVuSans-36" transform="translate(83.789062 0)"/>
       <use xlink:href="#DejaVuSans-30" transform="translate(147.412109 0)"/>
      </g>
     </g>
    </g>
    <g id="xtick_3">
     <g id="line2d_5">
      <path d="M 151.972778 217.02384 
L 151.972778 22.92 
" clip-path="url(#p9ae05815f2)" style="fill: none; stroke: #b0b0b0; stroke-opacity: 0.3; stroke-width: 0.8; stroke-linecap: square"/>
     </g>
     <g id="line2d_6">
      <g>
       <use xlink:href="#m07a69e2dac" x="151.972778" y="217.02384" style="stroke: #000000; stroke-width: 0.8"/>
      </g>
     </g>
     <g id="text_3">
      <!-- −40 -->
      <g transform="translate(142.475668 230.862434) scale(0.09 -0.09)">
       <defs>
        <path id="DejaVuSans-34" d="M 2419 4116 
L 825 1625 
L 2419 1625 
L 2419 4116 
z
M 2253 4666 
L 3047 4666 
L 3047 1625 
L 3713 1625 
L 3713 1100 
L 3047 1100 
L 3047 0 
L 2419 0 
L 2419 1100 
L 313 1100 
L 313 1709 
L 2253 4666 
z
" transform="scale(0.015625)"/>
       </defs>
       <use xlink:href="#DejaVuSans-2212"/>
       <use xlink:href="#DejaVuSans-34" transform="translate(83.789062 0)"/>
       <use xlink:href="#DejaVuSans-30" transform="translate(147.412109 0)"/>
      </g>
     </g>
    </g>
    <g id="xtick_4">
     <g id="line2d_7">
      <path d="M 193.133889 217.02384 
L 193.133889 22.92 
" clip-path="url(#p9ae05815f2)" style="fill: none; stroke: #b0b0b0; stroke-opacity: 0.3; stroke-width: 0.8; stroke-linecap: square"/>
     </g>
     <g id="line2d_8">
      <g>
       <use xlink:href="#m07a69e2dac" x="193.133889" y="217.02384" style="stroke: #000000; stroke-width: 0.8"/>
      </g>
     </g>
     <g id="text_4">
      <!-- −20 -->
      <g transform="translate(183.63678 230.862434) scale(0.09 -0.09)">
       <defs>
        <path id="DejaVuSans-32" d="M 1228 531 
L 3431 531 
L 3431 0 
L 469 0 
L 469 531 
Q 828 903 1448 1529 
Q 2069 2156 2228 2338 
Q 2531 2678 2651 2914 
Q 2772 3150 2772 3378 
Q 2772 3750 2511 3984 
Q 2250 4219 1831 4219 
Q 1534 4219 1204 4116 
Q 875 4013 500 3803 
L 500 4441 
Q 881 4594 1212 4672 
Q 1544 4750 1819 4750 
Q 2544 4750 2975 4387 
Q 3406 4025 3406 3419 
Q 3406 3131 3298 2873 
Q 3191 2616 2906 2266 
Q 2828 2175 2409 1742 
Q 1991 1309 1228 531 
z
" transform="scale(0.015625)"/>
       </defs>
       <use xlink:href="#DejaVuSans-2212"/>
       <use xlink:href="#DejaVuSans-32" transform="translate(83.789062 0)"/>
       <use xlink:href="#DejaVuSans-30" transform="translate(147.412109 0)"/>
      </g>
     </g>
    </g>
    <g id="xtick_5">
     <g id="line2d_9">
      <path d="M 234.295 217.02384 
L 234.295 22.92 
" clip-path="url(#p9ae05815f2)" style="fill: none; stroke: #b0b0b0; stroke-opacity: 0.3; stroke-width: 0.8; stroke-linecap: square"/>
     </g>
     <g id="line2d_10">
      <g>
       <use xlink:href="#m07a69e2dac" x="234.295" y="217.02384" style="stroke: #000000; stroke-width: 0.8"/>
      </g>
     </g>
     <g id="text_5">
      <!-- 0 -->
      <g transform="translate(231.431875 230.862434) scale(0.09 -0.09)">
       <use xlink:href="#DejaVuSans-30"/>
      </g>
     </g>
    </g>
    <g id="xtick_6">
     <g id="line2d_11">
      <path d="M 275.456111 217.02384 
L 275.456111 22.92 
" clip-path="url(#p9ae05815f2)" style="fill: none; stroke: #b0b0b0; stroke-opacity: 0.3; stroke-width: 0.8; stroke-linecap: square"/>
     </g>
     <g id="line2d_12">
      <g>
       <use xlink:href="#m07a69e2dac" x="275.456111" y="217.02384" style="stroke: #000000; stroke-width: 0.8"/>
      </g>
     </g>
     <g id="text_6">
      <!-- 20 -->
      <g transform="translate(269.729861 230.862434) scale(0.09 -0.09)">
       <use xlink:href="#DejaVuSans-32"/>
       <use xlink:href="#DejaVuSans-30" transform="translate(63.623047 0)"/>
      </g>
     </g>
    </g>
    <g id="xtick_7">
     <g id="line2d_13">
      <path d="M 316.617222 217.02384 
L 316.617222 22.92 
" clip-path="url(#p9ae05815f2)" style="fill: none; stroke: #b0b0b0; stroke-opacity: 0.3; stroke-width: 0.8; stroke-linecap: square"/>
     </g>
     <g id="line2d_14">
      <g>
       <use xlink:href="#m07a69e2dac" x="316.617222" y="217.02384" style="stroke: #000000; stroke-width: 0.8"/>
      </g>
     </g>
     <g id="text_7">
      <!-- 40 -->
      <g transform="translate(310.890972 230.862434) scale(0.09 -0.09)">
       <use xlink:href="#DejaVuSans-34"/>
       <use xlink:href="#DejaVuSans-30" transform="translate(63.623047 0)"/>
      </g>
     </g>
    </g>
    <g id="xtick_8">
     <g id="line2d_15">
      <path d="M 357.778333 217.02384 
L 357.778333 22.92 
" clip-path="url(#p9ae05815f2)" style="fill: none; stroke: #b0b0b0; stroke-opacity: 0.3; stroke-width: 0.8; stroke-linecap: square"/>
     </g>
     <g id="line2d_16">
      <g>
       <use xlink:href="#m07a69e2dac" x="357.778333" y="217.02384" style="stroke: #000000; stroke-width: 0.8"/>
      </g>
     </g>
     <g id="text_8">
      <!-- 60 -->
      <g transform="translate(352.052083 230.862434) scale(0.09 -0.09)">
       <use xlink:href="#DejaVuSans-36"/>
       <use xlink:href="#DejaVuSans-30" transform="translate(63.623047 0)"/>
      </g>
     </g>
    </g>
    <g id="xtick_9">
     <g id="line2d_17">
      <path d="M 398.939444 217.02384 
L 398.939444 22.92 
" clip-path="url(#p9ae05815f2)" style="fill: none; stroke: #b0b0b0; stroke-opacity: 0.3; stroke-width: 0.8; stroke-linecap: square"/>
     </g>
     <g id="line2d_18">
      <g>
       <use xlink:href="#m07a69e2dac" x="398.939444" y="217.02384" style="stroke: #000000; stroke-width: 0.8"/>
      </g>
     </g>
     <g id="text_9">
      <!-- 80 -->
      <g transform="translate(393.213194 230.862434) scale(0.09 -0.09)">
       <use xlink:href="#DejaVuSans-38"/>
       <use xlink:href="#DejaVuSans-30" transform="translate(63.623047 0)"/>
      </g>
     </g>
    </g>
    <g id="text_10">
     <!-- angle from broadside, theta (deg) -->
     <g transform="translate(158.095234 243.572746) scale(0.09 -0.09)">
      <defs>
       <path id="DejaVuSans-61" d="M 2194 1759 
Q 1497 1759 1228 1600 
Q 959 1441 959 1056 
Q 959 750 1161 570 
Q 1363 391 1709 391 
Q 2188 391 2477 730 
Q 2766 1069 2766 1631 
L 2766 1759 
L 2194 1759 
z
M 3341 1997 
L 3341 0 
L 2766 0 
L 2766 531 
Q 2569 213 2275 61 
Q 1981 -91 1556 -91 
Q 1019 -91 701 211 
Q 384 513 384 1019 
Q 384 1609 779 1909 
Q 1175 2209 1959 2209 
L 2766 2209 
L 2766 2266 
Q 2766 2663 2505 2880 
Q 2244 3097 1772 3097 
Q 1472 3097 1187 3025 
Q 903 2953 641 2809 
L 641 3341 
Q 956 3463 1253 3523 
Q 1550 3584 1831 3584 
Q 2591 3584 2966 3190 
Q 3341 2797 3341 1997 
z
" transform="scale(0.015625)"/>
       <path id="DejaVuSans-6e" d="M 3513 2113 
L 3513 0 
L 2938 0 
L 2938 2094 
Q 2938 2591 2744 2837 
Q 2550 3084 2163 3084 
Q 1697 3084 1428 2787 
Q 1159 2491 1159 1978 
L 1159 0 
L 581 0 
L 581 3500 
L 1159 3500 
L 1159 2956 
Q 1366 3272 1645 3428 
Q 1925 3584 2291 3584 
Q 2894 3584 3203 3211 
Q 3513 2838 3513 2113 
z
" transform="scale(0.015625)"/>
       <path id="DejaVuSans-67" d="M 2906 1791 
Q 2906 2416 2648 2759 
Q 2391 3103 1925 3103 
Q 1463 3103 1205 2759 
Q 947 2416 947 1791 
Q 947 1169 1205 825 
Q 1463 481 1925 481 
Q 2391 481 2648 825 
Q 2906 1169 2906 1791 
z
M 3481 434 
Q 3481 -459 3084 -895 
Q 2688 -1331 1869 -1331 
Q 1566 -1331 1297 -1286 
Q 1028 -1241 775 -1147 
L 775 -588 
Q 1028 -725 1275 -790 
Q 1522 -856 1778 -856 
Q 2344 -856 2625 -561 
Q 2906 -266 2906 331 
L 2906 616 
Q 2728 306 2450 153 
Q 2172 0 1784 0 
Q 1141 0 747 490 
Q 353 981 353 1791 
Q 353 2603 747 3093 
Q 1141 3584 1784 3584 
Q 2172 3584 2450 3431 
Q 2728 3278 2906 2969 
L 2906 3500 
L 3481 3500 
L 3481 434 
z
" transform="scale(0.015625)"/>
       <path id="DejaVuSans-6c" d="M 603 4863 
L 1178 4863 
L 1178 0 
L 603 0 
L 603 4863 
z
" transform="scale(0.015625)"/>
       <path id="DejaVuSans-65" d="M 3597 1894 
L 3597 1613 
L 953 1613 
Q 991 1019 1311 708 
Q 1631 397 2203 397 
Q 2534 397 2845 478 
Q 3156 559 3463 722 
L 3463 178 
Q 3153 47 2828 -22 
Q 2503 -91 2169 -91 
Q 1331 -91 842 396 
Q 353 884 353 1716 
Q 353 2575 817 3079 
Q 1281 3584 2069 3584 
Q 2775 3584 3186 3129 
Q 3597 2675 3597 1894 
z
M 3022 2063 
Q 3016 2534 2758 2815 
Q 2500 3097 2075 3097 
Q 1594 3097 1305 2825 
Q 1016 2553 972 2059 
L 3022 2063 
z
" transform="scale(0.015625)"/>
       <path id="DejaVuSans-20" transform="scale(0.015625)"/>
       <path id="DejaVuSans-66" d="M 2375 4863 
L 2375 4384 
L 1825 4384 
Q 1516 4384 1395 4259 
Q 1275 4134 1275 3809 
L 1275 3500 
L 2222 3500 
L 2222 3053 
L 1275 3053 
L 1275 0 
L 697 0 
L 697 3053 
L 147 3053 
L 147 3500 
L 697 3500 
L 697 3744 
Q 697 4328 969 4595 
Q 1241 4863 1831 4863 
L 2375 4863 
z
" transform="scale(0.015625)"/>
       <path id="DejaVuSans-72" d="M 2631 2963 
Q 2534 3019 2420 3045 
Q 2306 3072 2169 3072 
Q 1681 3072 1420 2755 
Q 1159 2438 1159 1844 
L 1159 0 
L 581 0 
L 581 3500 
L 1159 3500 
L 1159 2956 
Q 1341 3275 1631 3429 
Q 1922 3584 2338 3584 
Q 2397 3584 2469 3576 
Q 2541 3569 2628 3553 
L 2631 2963 
z
" transform="scale(0.015625)"/>
       <path id="DejaVuSans-6f" d="M 1959 3097 
Q 1497 3097 1228 2736 
Q 959 2375 959 1747 
Q 959 1119 1226 758 
Q 1494 397 1959 397 
Q 2419 397 2687 759 
Q 2956 1122 2956 1747 
Q 2956 2369 2687 2733 
Q 2419 3097 1959 3097 
z
M 1959 3584 
Q 2709 3584 3137 3096 
Q 3566 2609 3566 1747 
Q 3566 888 3137 398 
Q 2709 -91 1959 -91 
Q 1206 -91 779 398 
Q 353 888 353 1747 
Q 353 2609 779 3096 
Q 1206 3584 1959 3584 
z
" transform="scale(0.015625)"/>
       <path id="DejaVuSans-6d" d="M 3328 2828 
Q 3544 3216 3844 3400 
Q 4144 3584 4550 3584 
Q 5097 3584 5394 3201 
Q 5691 2819 5691 2113 
L 5691 0 
L 5113 0 
L 5113 2094 
Q 5113 2597 4934 2840 
Q 4756 3084 4391 3084 
Q 3944 3084 3684 2787 
Q 3425 2491 3425 1978 
L 3425 0 
L 2847 0 
L 2847 2094 
Q 2847 2600 2669 2842 
Q 2491 3084 2119 3084 
Q 1678 3084 1418 2786 
Q 1159 2488 1159 1978 
L 1159 0 
L 581 0 
L 581 3500 
L 1159 3500 
L 1159 2956 
Q 1356 3278 1631 3431 
Q 1906 3584 2284 3584 
Q 2666 3584 2933 3390 
Q 3200 3197 3328 2828 
z
" transform="scale(0.015625)"/>
       <path id="DejaVuSans-62" d="M 3116 1747 
Q 3116 2381 2855 2742 
Q 2594 3103 2138 3103 
Q 1681 3103 1420 2742 
Q 1159 2381 1159 1747 
Q 1159 1113 1420 752 
Q 1681 391 2138 391 
Q 2594 391 2855 752 
Q 3116 1113 3116 1747 
z
M 1159 2969 
Q 1341 3281 1617 3432 
Q 1894 3584 2278 3584 
Q 2916 3584 3314 3078 
Q 3713 2572 3713 1747 
Q 3713 922 3314 415 
Q 2916 -91 2278 -91 
Q 1894 -91 1617 61 
Q 1341 213 1159 525 
L 1159 0 
L 581 0 
L 581 4863 
L 1159 4863 
L 1159 2969 
z
" transform="scale(0.015625)"/>
       <path id="DejaVuSans-64" d="M 2906 2969 
L 2906 4863 
L 3481 4863 
L 3481 0 
L 2906 0 
L 2906 525 
Q 2725 213 2448 61 
Q 2172 -91 1784 -91 
Q 1150 -91 751 415 
Q 353 922 353 1747 
Q 353 2572 751 3078 
Q 1150 3584 1784 3584 
Q 2172 3584 2448 3432 
Q 2725 3281 2906 2969 
z
M 947 1747 
Q 947 1113 1208 752 
Q 1469 391 1925 391 
Q 2381 391 2643 752 
Q 2906 1113 2906 1747 
Q 2906 2381 2643 2742 
Q 2381 3103 1925 3103 
Q 1469 3103 1208 2742 
Q 947 2381 947 1747 
z
" transform="scale(0.015625)"/>
       <path id="DejaVuSans-73" d="M 2834 3397 
L 2834 2853 
Q 2591 2978 2328 3040 
Q 2066 3103 1784 3103 
Q 1356 3103 1142 2972 
Q 928 2841 928 2578 
Q 928 2378 1081 2264 
Q 1234 2150 1697 2047 
L 1894 2003 
Q 2506 1872 2764 1633 
Q 3022 1394 3022 966 
Q 3022 478 2636 193 
Q 2250 -91 1575 -91 
Q 1294 -91 989 -36 
Q 684 19 347 128 
L 347 722 
Q 666 556 975 473 
Q 1284 391 1588 391 
Q 1994 391 2212 530 
Q 2431 669 2431 922 
Q 2431 1156 2273 1281 
Q 2116 1406 1581 1522 
L 1381 1569 
Q 847 1681 609 1914 
Q 372 2147 372 2553 
Q 372 3047 722 3315 
Q 1072 3584 1716 3584 
Q 2034 3584 2315 3537 
Q 2597 3491 2834 3397 
z
" transform="scale(0.015625)"/>
       <path id="DejaVuSans-69" d="M 603 3500 
L 1178 3500 
L 1178 0 
L 603 0 
L 603 3500 
z
M 603 4863 
L 1178 4863 
L 1178 4134 
L 603 4134 
L 603 4863 
z
" transform="scale(0.015625)"/>
       <path id="DejaVuSans-2c" d="M 750 794 
L 1409 794 
L 1409 256 
L 897 -744 
L 494 -744 
L 750 256 
L 750 794 
z
" transform="scale(0.015625)"/>
       <path id="DejaVuSans-74" d="M 1172 4494 
L 1172 3500 
L 2356 3500 
L 2356 3053 
L 1172 3053 
L 1172 1153 
Q 1172 725 1289 603 
Q 1406 481 1766 481 
L 2356 481 
L 2356 0 
L 1766 0 
Q 1100 0 847 248 
Q 594 497 594 1153 
L 594 3053 
L 172 3053 
L 172 3500 
L 594 3500 
L 594 4494 
L 1172 4494 
z
" transform="scale(0.015625)"/>
       <path id="DejaVuSans-68" d="M 3513 2113 
L 3513 0 
L 2938 0 
L 2938 2094 
Q 2938 2591 2744 2837 
Q 2550 3084 2163 3084 
Q 1697 3084 1428 2787 
Q 1159 2491 1159 1978 
L 1159 0 
L 581 0 
L 581 4863 
L 1159 4863 
L 1159 2956 
Q 1366 3272 1645 3428 
Q 1925 3584 2291 3584 
Q 2894 3584 3203 3211 
Q 3513 2838 3513 2113 
z
" transform="scale(0.015625)"/>
       <path id="DejaVuSans-28" d="M 1984 4856 
Q 1566 4138 1362 3434 
Q 1159 2731 1159 2009 
Q 1159 1288 1364 580 
Q 1569 -128 1984 -844 
L 1484 -844 
Q 1016 -109 783 600 
Q 550 1309 550 2009 
Q 550 2706 781 3412 
Q 1013 4119 1484 4856 
L 1984 4856 
z
" transform="scale(0.015625)"/>
       <path id="DejaVuSans-29" d="M 513 4856 
L 1013 4856 
Q 1481 4119 1714 3412 
Q 1947 2706 1947 2009 
Q 1947 1309 1714 600 
Q 1481 -109 1013 -844 
L 513 -844 
Q 928 -128 1133 580 
Q 1338 1288 1338 2009 
Q 1338 2731 1133 3434 
Q 928 4138 513 4856 
z
" transform="scale(0.015625)"/>
      </defs>
      <use xlink:href="#DejaVuSans-61"/>
      <use xlink:href="#DejaVuSans-6e" transform="translate(61.279297 0)"/>
      <use xlink:href="#DejaVuSans-67" transform="translate(124.658203 0)"/>
      <use xlink:href="#DejaVuSans-6c" transform="translate(188.134766 0)"/>
      <use xlink:href="#DejaVuSans-65" transform="translate(215.917969 0)"/>
      <use xlink:href="#DejaVuSans-20" transform="translate(277.441406 0)"/>
      <use xlink:href="#DejaVuSans-66" transform="translate(309.228516 0)"/>
      <use xlink:href="#DejaVuSans-72" transform="translate(344.433594 0)"/>
      <use xlink:href="#DejaVuSans-6f" transform="translate(383.296875 0)"/>
      <use xlink:href="#DejaVuSans-6d" transform="translate(444.478516 0)"/>
      <use xlink:href="#DejaVuSans-20" transform="translate(541.890625 0)"/>
      <use xlink:href="#DejaVuSans-62" transform="translate(573.677734 0)"/>
      <use xlink:href="#DejaVuSans-72" transform="translate(637.154297 0)"/>
      <use xlink:href="#DejaVuSans-6f" transform="translate(676.017578 0)"/>
      <use xlink:href="#DejaVuSans-61" transform="translate(737.199219 0)"/>
      <use xlink:href="#DejaVuSans-64" transform="translate(798.478516 0)"/>
      <use xlink:href="#DejaVuSans-73" transform="translate(861.955078 0)"/>
      <use xlink:href="#DejaVuSans-69" transform="translate(914.054688 0)"/>
      <use xlink:href="#DejaVuSans-64" transform="translate(941.837891 0)"/>
      <use xlink:href="#DejaVuSans-65" transform="translate(1005.314453 0)"/>
      <use xlink:href="#DejaVuSans-2c" transform="translate(1066.837891 0)"/>
      <use xlink:href="#DejaVuSans-20" transform="translate(1098.625 0)"/>
      <use xlink:href="#DejaVuSans-74" transform="translate(1130.412109 0)"/>
      <use xlink:href="#DejaVuSans-68" transform="translate(1169.621094 0)"/>
      <use xlink:href="#DejaVuSans-65" transform="translate(1233 0)"/>
      <use xlink:href="#DejaVuSans-74" transform="translate(1294.523438 0)"/>
      <use xlink:href="#DejaVuSans-61" transform="translate(1333.732422 0)"/>
      <use xlink:href="#DejaVuSans-20" transform="translate(1395.011719 0)"/>
      <use xlink:href="#DejaVuSans-28" transform="translate(1426.798828 0)"/>
      <use xlink:href="#DejaVuSans-64" transform="translate(1465.8125 0)"/>
      <use xlink:href="#DejaVuSans-65" transform="translate(1529.289062 0)"/>
      <use xlink:href="#DejaVuSans-67" transform="translate(1590.8125 0)"/>
      <use xlink:href="#DejaVuSans-29" transform="translate(1654.289062 0)"/>
     </g>
    </g>
   </g>
   <g id="matplotlib.axis_2">
    <g id="ytick_1">
     <g id="line2d_19">
      <path d="M 49.07 217.02384 
L 419.52 217.02384 
" clip-path="url(#p9ae05815f2)" style="fill: none; stroke: #b0b0b0; stroke-opacity: 0.3; stroke-width: 0.8; stroke-linecap: square"/>
     </g>
     <g id="line2d_20">
      <defs>
       <path id="m82648e3363" d="M 0 0 
L -3.5 0 
" style="stroke: #000000; stroke-width: 0.8"/>
      </defs>
      <g>
       <use xlink:href="#m82648e3363" x="49.07" y="217.02384" style="stroke: #000000; stroke-width: 0.8"/>
      </g>
     </g>
     <g id="text_11">
      <!-- −40 -->
      <g transform="translate(23.075781 220.443137) scale(0.09 -0.09)">
       <use xlink:href="#DejaVuSans-2212"/>
       <use xlink:href="#DejaVuSans-34" transform="translate(83.789062 0)"/>
       <use xlink:href="#DejaVuSans-30" transform="translate(147.412109 0)"/>
      </g>
     </g>
    </g>
    <g id="ytick_2">
     <g id="line2d_21">
      <path d="M 49.07 193.91624 
L 419.52 193.91624 
" clip-path="url(#p9ae05815f2)" style="fill: none; stroke: #b0b0b0; stroke-opacity: 0.3; stroke-width: 0.8; stroke-linecap: square"/>
     </g>
     <g id="line2d_22">
      <g>
       <use xlink:href="#m82648e3363" x="49.07" y="193.91624" style="stroke: #000000; stroke-width: 0.8"/>
      </g>
     </g>
     <g id="text_12">
      <!-- −35 -->
      <g transform="translate(23.075781 197.335537) scale(0.09 -0.09)">
       <defs>
        <path id="DejaVuSans-33" d="M 2597 2516 
Q 3050 2419 3304 2112 
Q 3559 1806 3559 1356 
Q 3559 666 3084 287 
Q 2609 -91 1734 -91 
Q 1441 -91 1130 -33 
Q 819 25 488 141 
L 488 750 
Q 750 597 1062 519 
Q 1375 441 1716 441 
Q 2309 441 2620 675 
Q 2931 909 2931 1356 
Q 2931 1769 2642 2001 
Q 2353 2234 1838 2234 
L 1294 2234 
L 1294 2753 
L 1863 2753 
Q 2328 2753 2575 2939 
Q 2822 3125 2822 3475 
Q 2822 3834 2567 4026 
Q 2313 4219 1838 4219 
Q 1578 4219 1281 4162 
Q 984 4106 628 3988 
L 628 4550 
Q 988 4650 1302 4700 
Q 1616 4750 1894 4750 
Q 2613 4750 3031 4423 
Q 3450 4097 3450 3541 
Q 3450 3153 3228 2886 
Q 3006 2619 2597 2516 
z
" transform="scale(0.015625)"/>
        <path id="DejaVuSans-35" d="M 691 4666 
L 3169 4666 
L 3169 4134 
L 1269 4134 
L 1269 2991 
Q 1406 3038 1543 3061 
Q 1681 3084 1819 3084 
Q 2600 3084 3056 2656 
Q 3513 2228 3513 1497 
Q 3513 744 3044 326 
Q 2575 -91 1722 -91 
Q 1428 -91 1123 -41 
Q 819 9 494 109 
L 494 744 
Q 775 591 1075 516 
Q 1375 441 1709 441 
Q 2250 441 2565 725 
Q 2881 1009 2881 1497 
Q 2881 1984 2565 2268 
Q 2250 2553 1709 2553 
Q 1456 2553 1204 2497 
Q 953 2441 691 2322 
L 691 4666 
z
" transform="scale(0.015625)"/>
       </defs>
       <use xlink:href="#DejaVuSans-2212"/>
       <use xlink:href="#DejaVuSans-33" transform="translate(83.789062 0)"/>
       <use xlink:href="#DejaVuSans-35" transform="translate(147.412109 0)"/>
      </g>
     </g>
    </g>
    <g id="ytick_3">
     <g id="line2d_23">
      <path d="M 49.07 170.80864 
L 419.52 170.80864 
" clip-path="url(#p9ae05815f2)" style="fill: none; stroke: #b0b0b0; stroke-opacity: 0.3; stroke-width: 0.8; stroke-linecap: square"/>
     </g>
     <g id="line2d_24">
      <g>
       <use xlink:href="#m82648e3363" x="49.07" y="170.80864" style="stroke: #000000; stroke-width: 0.8"/>
      </g>
     </g>
     <g id="text_13">
      <!-- −30 -->
      <g transform="translate(23.075781 174.227937) scale(0.09 -0.09)">
       <use xlink:href="#DejaVuSans-2212"/>
       <use xlink:href="#DejaVuSans-33" transform="translate(83.789062 0)"/>
       <use xlink:href="#DejaVuSans-30" transform="translate(147.412109 0)"/>
      </g>
     </g>
    </g>
    <g id="ytick_4">
     <g id="line2d_25">
      <path d="M 49.07 147.70104 
L 419.52 147.70104 
" clip-path="url(#p9ae05815f2)" style="fill: none; stroke: #b0b0b0; stroke-opacity: 0.3; stroke-width: 0.8; stroke-linecap: square"/>
     </g>
     <g id="line2d_26">
      <g>
       <use xlink:href="#m82648e3363" x="49.07" y="147.70104" style="stroke: #000000; stroke-width: 0.8"/>
      </g>
     </g>
     <g id="text_14">
      <!-- −25 -->
      <g transform="translate(23.075781 151.120337) scale(0.09 -0.09)">
       <use xlink:href="#DejaVuSans-2212"/>
       <use xlink:href="#DejaVuSans-32" transform="translate(83.789062 0)"/>
       <use xlink:href="#DejaVuSans-35" transform="translate(147.412109 0)"/>
      </g>
     </g>
    </g>
    <g id="ytick_5">
     <g id="line2d_27">
      <path d="M 49.07 124.59344 
L 419.52 124.59344 
" clip-path="url(#p9ae05815f2)" style="fill: none; stroke: #b0b0b0; stroke-opacity: 0.3; stroke-width: 0.8; stroke-linecap: square"/>
     </g>
     <g id="line2d_28">
      <g>
       <use xlink:href="#m82648e3363" x="49.07" y="124.59344" style="stroke: #000000; stroke-width: 0.8"/>
      </g>
     </g>
     <g id="text_15">
      <!-- −20 -->
      <g transform="translate(23.075781 128.012737) scale(0.09 -0.09)">
       <use xlink:href="#DejaVuSans-2212"/>
       <use xlink:href="#DejaVuSans-32" transform="translate(83.789062 0)"/>
       <use xlink:href="#DejaVuSans-30" transform="translate(147.412109 0)"/>
      </g>
     </g>
    </g>
    <g id="ytick_6">
     <g id="line2d_29">
      <path d="M 49.07 101.48584 
L 419.52 101.48584 
" clip-path="url(#p9ae05815f2)" style="fill: none; stroke: #b0b0b0; stroke-opacity: 0.3; stroke-width: 0.8; stroke-linecap: square"/>
     </g>
     <g id="line2d_30">
      <g>
       <use xlink:href="#m82648e3363" x="49.07" y="101.48584" style="stroke: #000000; stroke-width: 0.8"/>
      </g>
     </g>
     <g id="text_16">
      <!-- −15 -->
      <g transform="translate(23.075781 104.905137) scale(0.09 -0.09)">
       <defs>
        <path id="DejaVuSans-31" d="M 794 531 
L 1825 531 
L 1825 4091 
L 703 3866 
L 703 4441 
L 1819 4666 
L 2450 4666 
L 2450 531 
L 3481 531 
L 3481 0 
L 794 0 
L 794 531 
z
" transform="scale(0.015625)"/>
       </defs>
       <use xlink:href="#DejaVuSans-2212"/>
       <use xlink:href="#DejaVuSans-31" transform="translate(83.789062 0)"/>
       <use xlink:href="#DejaVuSans-35" transform="translate(147.412109 0)"/>
      </g>
     </g>
    </g>
    <g id="ytick_7">
     <g id="line2d_31">
      <path d="M 49.07 78.37824 
L 419.52 78.37824 
" clip-path="url(#p9ae05815f2)" style="fill: none; stroke: #b0b0b0; stroke-opacity: 0.3; stroke-width: 0.8; stroke-linecap: square"/>
     </g>
     <g id="line2d_32">
      <g>
       <use xlink:href="#m82648e3363" x="49.07" y="78.37824" style="stroke: #000000; stroke-width: 0.8"/>
      </g>
     </g>
     <g id="text_17">
      <!-- −10 -->
      <g transform="translate(23.075781 81.797537) scale(0.09 -0.09)">
       <use xlink:href="#DejaVuSans-2212"/>
       <use xlink:href="#DejaVuSans-31" transform="translate(83.789062 0)"/>
       <use xlink:href="#DejaVuSans-30" transform="translate(147.412109 0)"/>
      </g>
     </g>
    </g>
    <g id="ytick_8">
     <g id="line2d_33">
      <path d="M 49.07 55.27064 
L 419.52 55.27064 
" clip-path="url(#p9ae05815f2)" style="fill: none; stroke: #b0b0b0; stroke-opacity: 0.3; stroke-width: 0.8; stroke-linecap: square"/>
     </g>
     <g id="line2d_34">
      <g>
       <use xlink:href="#m82648e3363" x="49.07" y="55.27064" style="stroke: #000000; stroke-width: 0.8"/>
      </g>
     </g>
     <g id="text_18">
      <!-- −5 -->
      <g transform="translate(28.802031 58.689937) scale(0.09 -0.09)">
       <use xlink:href="#DejaVuSans-2212"/>
       <use xlink:href="#DejaVuSans-35" transform="translate(83.789062 0)"/>
      </g>
     </g>
    </g>
    <g id="ytick_9">
     <g id="line2d_35">
      <path d="M 49.07 32.16304 
L 419.52 32.16304 
" clip-path="url(#p9ae05815f2)" style="fill: none; stroke: #b0b0b0; stroke-opacity: 0.3; stroke-width: 0.8; stroke-linecap: square"/>
     </g>
     <g id="line2d_36">
      <g>
       <use xlink:href="#m82648e3363" x="49.07" y="32.16304" style="stroke: #000000; stroke-width: 0.8"/>
      </g>
     </g>
     <g id="text_19">
      <!-- 0 -->
      <g transform="translate(36.34375 35.582337) scale(0.09 -0.09)">
       <use xlink:href="#DejaVuSans-30"/>
      </g>
     </g>
    </g>
    <g id="text_20">
     <!-- |AF|^2 relative to N^2 (dB) -->
     <g transform="translate(16.95375 181.97067) rotate(-90) scale(0.09 -0.09)">
      <defs>
       <path id="DejaVuSans-7c" d="M 1344 4891 
L 1344 -1509 
L 813 -1509 
L 813 4891 
L 1344 4891 
z
" transform="scale(0.015625)"/>
       <path id="DejaVuSans-41" d="M 2188 4044 
L 1331 1722 
L 3047 1722 
L 2188 4044 
z
M 1831 4666 
L 2547 4666 
L 4325 0 
L 3669 0 
L 3244 1197 
L 1141 1197 
L 716 0 
L 50 0 
L 1831 4666 
z
" transform="scale(0.015625)"/>
       <path id="DejaVuSans-46" d="M 628 4666 
L 3309 4666 
L 3309 4134 
L 1259 4134 
L 1259 2759 
L 3109 2759 
L 3109 2228 
L 1259 2228 
L 1259 0 
L 628 0 
L 628 4666 
z
" transform="scale(0.015625)"/>
       <path id="DejaVuSans-5e" d="M 2988 4666 
L 4684 2925 
L 4056 2925 
L 2681 4159 
L 1306 2925 
L 678 2925 
L 2375 4666 
L 2988 4666 
z
" transform="scale(0.015625)"/>
       <path id="DejaVuSans-76" d="M 191 3500 
L 800 3500 
L 1894 563 
L 2988 3500 
L 3597 3500 
L 2284 0 
L 1503 0 
L 191 3500 
z
" transform="scale(0.015625)"/>
       <path id="DejaVuSans-4e" d="M 628 4666 
L 1478 4666 
L 3547 763 
L 3547 4666 
L 4159 4666 
L 4159 0 
L 3309 0 
L 1241 3903 
L 1241 0 
L 628 0 
L 628 4666 
z
" transform="scale(0.015625)"/>
       <path id="DejaVuSans-42" d="M 1259 2228 
L 1259 519 
L 2272 519 
Q 2781 519 3026 730 
Q 3272 941 3272 1375 
Q 3272 1813 3026 2020 
Q 2781 2228 2272 2228 
L 1259 2228 
z
M 1259 4147 
L 1259 2741 
L 2194 2741 
Q 2656 2741 2882 2914 
Q 3109 3088 3109 3444 
Q 3109 3797 2882 3972 
Q 2656 4147 2194 4147 
L 1259 4147 
z
M 628 4666 
L 2241 4666 
Q 2963 4666 3353 4366 
Q 3744 4066 3744 3513 
Q 3744 3084 3544 2831 
Q 3344 2578 2956 2516 
Q 3422 2416 3680 2098 
Q 3938 1781 3938 1306 
Q 3938 681 3513 340 
Q 3088 0 2303 0 
L 628 0 
L 628 4666 
z
" transform="scale(0.015625)"/>
      </defs>
      <use xlink:href="#DejaVuSans-7c"/>
      <use xlink:href="#DejaVuSans-41" transform="translate(33.691406 0)"/>
      <use xlink:href="#DejaVuSans-46" transform="translate(102.099609 0)"/>
      <use xlink:href="#DejaVuSans-7c" transform="translate(159.619141 0)"/>
      <use xlink:href="#DejaVuSans-5e" transform="translate(193.310547 0)"/>
      <use xlink:href="#DejaVuSans-32" transform="translate(277.099609 0)"/>
      <use xlink:href="#DejaVuSans-20" transform="translate(340.722656 0)"/>
      <use xlink:href="#DejaVuSans-72" transform="translate(372.509766 0)"/>
      <use xlink:href="#DejaVuSans-65" transform="translate(411.373047 0)"/>
      <use xlink:href="#DejaVuSans-6c" transform="translate(472.896484 0)"/>
      <use xlink:href="#DejaVuSans-61" transform="translate(500.679688 0)"/>
      <use xlink:href="#DejaVuSans-74" transform="translate(561.958984 0)"/>
      <use xlink:href="#DejaVuSans-69" transform="translate(601.167969 0)"/>
      <use xlink:href="#DejaVuSans-76" transform="translate(628.951172 0)"/>
      <use xlink:href="#DejaVuSans-65" transform="translate(688.130859 0)"/>
      <use xlink:href="#DejaVuSans-20" transform="translate(749.654297 0)"/>
      <use xlink:href="#DejaVuSans-74" transform="translate(781.441406 0)"/>
      <use xlink:href="#DejaVuSans-6f" transform="translate(820.650391 0)"/>
      <use xlink:href="#DejaVuSans-20" transform="translate(881.832031 0)"/>
      <use xlink:href="#DejaVuSans-4e" transform="translate(913.619141 0)"/>
      <use xlink:href="#DejaVuSans-5e" transform="translate(988.423828 0)"/>
      <use xlink:href="#DejaVuSans-32" transform="translate(1072.212891 0)"/>
      <use xlink:href="#DejaVuSans-20" transform="translate(1135.835938 0)"/>
      <use xlink:href="#DejaVuSans-28" transform="translate(1167.623047 0)"/>
      <use xlink:href="#DejaVuSans-64" transform="translate(1206.636719 0)"/>
      <use xlink:href="#DejaVuSans-42" transform="translate(1270.113281 0)"/>
      <use xlink:href="#DejaVuSans-29" transform="translate(1338.716797 0)"/>
     </g>
    </g>
   </g>
   <g id="line2d_37">
    <path d="M 49.07 217.02384 
L 62.344458 217.02384 
L 62.550264 216.029727 
L 64.402514 205.712233 
L 66.357667 196.101487 
L 68.415722 187.10345 
L 70.576681 178.643599 
L 72.840542 170.662159 
L 75.207306 163.110831 
L 77.676972 155.950494 
L 80.249542 149.149574 
L 82.925014 142.682896 
L 85.703389 136.530864 
L 88.584667 130.678913 
L 91.568847 125.117163 
L 94.655931 119.840241 
L 97.743014 115.001456 
L 100.830097 110.564648 
L 103.917181 106.502373 
L 107.004264 102.794281 
L 110.091347 99.42597 
L 113.178431 96.388206 
L 116.162611 93.761573 
L 119.043889 91.514295 
L 121.822264 89.618926 
L 124.497736 88.051322 
L 127.070306 86.789861 
L 129.539972 85.814824 
L 131.906736 85.107908 
L 134.170597 84.651812 
L 136.434458 84.424774 
L 138.595417 84.437188 
L 140.653472 84.673759 
L 142.608625 85.119158 
L 144.563778 85.7998 
L 146.416028 86.683727 
L 148.165375 87.755584 
L 149.914722 89.084827 
L 151.664069 90.704662 
L 153.310514 92.532138 
L 154.956958 94.698886 
L 156.5005 97.089687 
L 158.044042 99.892288 
L 159.484681 102.953304 
L 160.925319 106.539083 
L 162.263056 110.451588 
L 163.600792 115.07766 
L 164.835625 120.17163 
L 165.967556 125.768501 
L 166.996583 131.907071 
L 168.025611 139.463919 
L 168.951736 148.067469 
L 169.774958 157.978846 
L 170.495278 169.592208 
L 171.112694 183.545217 
L 171.627208 200.982263 
L 172.038819 217.02384 
L 173.067847 217.02384 
L 173.17075 216.387974 
L 173.685264 191.775176 
L 174.302681 173.968958 
L 175.023 159.747519 
L 175.846222 147.777124 
L 176.772347 137.367131 
L 177.801375 128.110431 
L 179.036208 119.057151 
L 180.373944 110.937455 
L 181.814583 103.550283 
L 183.358125 96.759085 
L 185.004569 90.467752 
L 186.856819 84.284514 
L 188.811972 78.556431 
L 190.870028 73.229282 
L 193.030986 68.264257 
L 195.294847 63.633872 
L 197.558708 59.496772 
L 199.925472 55.625109 
L 202.395139 52.017152 
L 204.864806 48.800622 
L 207.334472 45.936528 
L 209.907042 43.295076 
L 212.479611 40.975862 
L 215.052181 38.957422 
L 217.62475 37.222705 
L 220.197319 35.758167 
L 222.769889 34.553113 
L 225.342458 33.599217 
L 227.915028 32.890181 
L 230.384694 32.435655 
L 232.854361 32.200006 
L 235.324028 32.181899 
L 237.793694 32.381232 
L 240.263361 32.799133 
L 242.733028 33.43799 
L 245.202694 34.301541 
L 247.672361 35.394995 
L 250.142028 36.725222 
L 252.611694 38.301014 
L 255.081361 40.133436 
L 257.551028 42.236306 
L 260.020694 44.62685 
L 262.490361 47.326596 
L 264.960028 50.362626 
L 267.326792 53.61947 
L 269.693556 57.25549 
L 271.957417 61.134424 
L 274.221278 65.46389 
L 276.382236 70.087481 
L 278.440292 75.021143 
L 280.395444 80.287972 
L 282.247694 85.920224 
L 283.997042 91.962266 
L 285.643486 98.475041 
L 287.187028 105.543052 
L 288.524764 112.687361 
L 289.759597 120.445514 
L 290.891528 128.954096 
L 291.920556 138.408887 
L 292.846681 149.103737 
L 293.669903 161.509533 
L 294.287319 173.968958 
L 294.801833 188.226641 
L 295.213444 204.726789 
L 295.522153 217.02384 
L 296.654083 217.02384 
L 297.168597 193.046011 
L 297.786014 175.93293 
L 298.506333 162.520076 
L 299.329556 151.47364 
L 300.255681 142.102867 
L 301.284708 134.000482 
L 302.416639 126.905255 
L 303.651472 120.639598 
L 304.886306 115.468784 
L 306.224042 110.779818 
L 307.664681 106.539083 
L 309.105319 102.953304 
L 310.648861 99.691092 
L 312.192403 96.918279 
L 313.838847 94.40766 
L 315.485292 92.286176 
L 317.234639 90.395973 
L 318.983986 88.830184 
L 320.733333 87.548564 
L 322.585583 86.46593 
L 324.437833 85.635823 
L 326.392986 85.006569 
L 328.348139 84.608023 
L 330.406194 84.416763 
L 332.567153 84.448304 
L 334.728111 84.700855 
L 336.991972 85.187062 
L 339.358736 85.923695 
L 341.828403 86.928205 
L 344.400972 88.219066 
L 347.076444 89.816193 
L 349.854819 91.741436 
L 352.736097 94.019206 
L 355.617375 96.580555 
L 358.601556 99.532883 
L 361.585736 102.794281 
L 364.672819 106.502373 
L 367.759903 110.564648 
L 370.846986 115.001456 
L 373.934069 119.840241 
L 376.91825 124.933744 
L 379.902431 130.479019 
L 382.783708 136.313025 
L 385.562083 142.445306 
L 388.237556 148.890026 
L 390.810125 155.666297 
L 393.279792 162.798701 
L 395.646556 170.31807 
L 397.910417 178.262585 
L 400.071375 186.679329 
L 402.129431 195.626474 
L 404.084583 205.176391 
L 405.833931 214.815195 
L 406.245542 217.02384 
L 419.52 217.02384 
L 419.52 217.02384 
" clip-path="url(#p9ae05815f2)" style="fill: none; stroke: #1f77b4; stroke-width: 1.3; stroke-linecap: square"/>
   </g>
   <g id="line2d_38">
    <path d="M 49.07 217.02384 
L 60.286403 217.02384 
L 61.109625 211.506421 
L 62.858972 200.730975 
L 64.711222 190.753393 
L 66.666375 181.467517 
L 68.724431 172.790323 
L 70.885389 164.655996 
L 73.14925 157.011897 
L 75.516014 149.815744 
L 77.985681 143.033613 
L 80.455347 136.882474 
L 83.027917 131.052643 
L 85.703389 125.534382 
L 88.481764 120.321232 
L 91.260139 115.577305 
L 94.141417 111.103961 
L 97.022694 107.044965 
L 99.903972 103.368444 
L 102.78525 100.049545 
L 105.666528 97.069179 
L 108.547806 94.413135 
L 111.326181 92.149732 
L 114.104556 90.173007 
L 116.780028 88.538056 
L 119.4555 87.166925 
L 122.028069 86.100008 
L 124.497736 85.312297 
L 126.8645 84.780871 
L 129.231264 84.475946 
L 131.495125 84.405356 
L 133.758986 84.561982 
L 135.919944 84.935816 
L 138.080903 85.543344 
L 140.138958 86.355253 
L 142.197014 87.413583 
L 144.152167 88.667844 
L 146.107319 90.18881 
L 148.062472 92.005988 
L 149.914722 94.034156 
L 151.766972 96.401024 
L 153.516319 98.993075 
L 155.265667 101.988087 
L 156.912111 105.240395 
L 158.558556 108.996473 
L 160.102097 113.075076 
L 161.542736 117.485101 
L 162.983375 122.633058 
L 164.321111 128.271181 
L 165.555944 134.455217 
L 166.687875 141.257042 
L 167.716903 148.769875 
L 168.643028 157.115628 
L 169.46625 166.455303 
L 170.186569 177.003399 
L 170.803986 189.046368 
L 171.3185 202.95903 
L 171.833014 217.02384 
L 173.376556 217.02384 
L 173.685264 206.216476 
L 174.302681 188.703144 
L 175.023 174.827335 
L 175.846222 163.257279 
L 176.772347 153.304697 
L 177.801375 144.565295 
L 178.933306 136.781411 
L 180.168139 129.779716 
L 181.505875 123.439442 
L 182.946514 117.674748 
L 184.490056 112.424321 
L 186.033597 107.922317 
L 187.680042 103.783089 
L 189.326486 100.209915 
L 191.075833 96.937924 
L 192.825181 94.133884 
L 194.574528 91.7439 
L 196.323875 89.72854 
L 198.073222 88.059084 
L 199.719667 86.785423 
L 201.366111 85.788447 
L 202.909653 85.098758 
L 204.453194 84.64353 
L 205.996736 84.423303 
L 207.437375 84.432921 
L 208.878014 84.655851 
L 210.318653 85.100293 
L 211.759292 85.777559 
L 213.199931 86.702651 
L 214.640569 87.895088 
L 216.081208 89.38009 
L 217.521847 91.190289 
L 218.962486 93.368232 
L 220.403125 95.970157 
L 221.740861 98.831712 
L 223.078597 102.206676 
L 224.416333 106.210204 
L 225.651167 110.606345 
L 226.886 115.873493 
L 228.017931 121.721902 
L 229.046958 128.206061 
L 229.973083 135.391228 
L 230.796306 143.351564 
L 231.619528 153.61581 
L 232.339847 165.779581 
L 232.957264 180.657492 
L 233.368875 195.186997 
L 233.883389 217.02384 
L 234.809514 217.02384 
L 235.324028 189.914503 
L 235.941444 170.737675 
L 236.661764 155.819963 
L 237.484986 143.453111 
L 238.411111 132.807575 
L 239.440139 123.414092 
L 240.572069 114.980456 
L 241.909806 106.729652 
L 243.350444 99.285356 
L 244.893986 92.494617 
L 246.540431 86.251407 
L 248.289778 80.4801 
L 250.142028 75.125732 
L 252.097181 70.147928 
L 254.155236 65.516957 
L 256.316194 61.211066 
L 258.477153 57.38601 
L 260.741014 53.820642 
L 263.107778 50.513205 
L 265.474542 47.583339 
L 267.944208 44.884013 
L 270.413875 42.51337 
L 272.883542 40.441155 
L 275.456111 38.573233 
L 278.028681 36.978983 
L 280.60125 35.638974 
L 283.276722 34.497427 
L 285.952194 33.597373 
L 288.627667 32.925327 
L 291.406042 32.456297 
L 294.184417 32.209287 
L 297.065694 32.177112 
L 299.946972 32.363524 
L 302.931153 32.778089 
L 306.018236 33.435566 
L 309.105319 34.317775 
L 312.295306 35.458261 
L 315.588194 36.872784 
L 318.983986 38.577678 
L 322.482681 40.590045 
L 325.981375 42.857481 
L 329.582972 45.454566 
L 333.287472 48.401989 
L 337.094875 51.722588 
L 340.902278 55.340131 
L 344.812583 59.368949 
L 348.722889 63.72318 
L 352.633194 68.414522 
L 356.5435 73.459461 
L 360.350903 78.732724 
L 364.158306 84.389997 
L 367.862806 90.2973 
L 371.464403 96.463073 
L 374.963097 102.901169 
L 378.255986 109.419912 
L 381.445972 116.223693 
L 384.533056 123.340613 
L 387.414333 130.538254 
L 390.192708 138.080886 
L 392.765278 145.694219 
L 395.234944 153.688952 
L 397.601708 162.116971 
L 399.762667 170.615283 
L 401.820722 179.590726 
L 403.775875 189.112802 
L 405.628125 199.267223 
L 407.377472 210.161477 
L 408.509403 217.02384 
L 419.52 217.02384 
L 419.52 217.02384 
" clip-path="url(#p9ae05815f2)" style="fill: none; stroke: #ff7f0e; stroke-width: 1.3; stroke-linecap: square"/>
   </g>
   <g id="line2d_39">
    <path d="M 49.07 84.46029 
L 62.241556 84.570846 
L 69.856361 84.840674 
L 75.618917 85.260829 
L 80.352444 85.822484 
L 84.468556 86.527674 
L 88.173056 87.382701 
L 91.568847 88.392213 
L 94.655931 89.535111 
L 97.537208 90.830685 
L 100.315583 92.325349 
L 102.888153 93.959823 
L 105.357819 95.792814 
L 107.724583 97.831837 
L 109.988444 100.08421 
L 112.149403 102.557225 
L 114.207458 105.258303 
L 116.162611 108.195132 
L 118.014861 111.375773 
L 119.764208 114.808721 
L 121.513556 118.750918 
L 123.16 123.038724 
L 124.703542 127.701597 
L 126.144181 132.775249 
L 127.481917 138.303314 
L 128.71675 144.3395 
L 129.848681 150.950376 
L 130.877708 158.218943 
L 131.803833 166.249093 
L 132.627056 175.170735 
L 133.347375 185.144261 
L 133.964792 196.359498 
L 134.582208 212.115322 
L 134.788014 217.02384 
L 136.948972 217.02384 
L 137.875097 192.91483 
L 138.595417 180.571362 
L 139.418639 169.918808 
L 140.447667 159.614604 
L 141.579597 150.658042 
L 142.814431 142.719888 
L 144.152167 135.588317 
L 145.592806 129.120058 
L 147.136347 123.215031 
L 148.782792 117.802123 
L 150.532139 112.830739 
L 152.281486 108.502744 
L 154.133736 104.496262 
L 156.088889 100.807897 
L 158.044042 97.596777 
L 159.999194 94.805276 
L 161.954347 92.391347 
L 163.9095 90.32433 
L 165.864653 88.582259 
L 167.716903 87.21792 
L 169.569153 86.123728 
L 171.3185 85.334909 
L 173.067847 84.783645 
L 174.817194 84.473024 
L 176.463639 84.4061 
L 178.110083 84.565992 
L 179.653625 84.931828 
L 181.197167 85.519051 
L 182.740708 86.343291 
L 184.28425 87.424421 
L 185.827792 88.787705 
L 187.371333 90.465427 
L 188.811972 92.351589 
L 190.252611 94.591795 
L 191.69325 97.243593 
L 193.133889 100.384058 
L 194.471625 103.829934 
L 195.809361 107.907677 
L 197.044194 112.380746 
L 198.279028 117.741214 
L 199.410958 123.701596 
L 200.439986 130.327006 
L 201.366111 137.697316 
L 202.189333 145.907792 
L 202.909653 155.065836 
L 203.629972 167.286643 
L 204.247389 182.273899 
L 204.659 196.967425 
L 205.173514 217.02384 
L 206.099639 217.02384 
L 206.717056 186.74695 
L 207.334472 169.105312 
L 208.054792 154.977805 
L 208.878014 143.072195 
L 209.804139 132.714785 
L 210.833167 123.507039 
L 212.068 114.508768 
L 213.405736 106.449381 
L 214.846375 99.130893 
L 216.389917 92.419068 
L 218.036361 86.219651 
L 219.785708 80.46489 
L 221.637958 75.105412 
L 223.593111 70.105085 
L 225.651167 65.437633 
L 227.812125 61.084331 
L 230.075986 57.032401 
L 232.339847 53.428029 
L 234.706611 50.077547 
L 237.073375 47.105512 
L 239.543042 44.366111 
L 242.012708 41.962155 
L 244.482375 39.865956 
L 246.952042 38.05513 
L 249.421708 36.511405 
L 251.891375 35.219761 
L 254.463944 34.129011 
L 257.036514 33.286809 
L 259.609083 32.683722 
L 262.181653 32.312103 
L 264.754222 32.165858 
L 267.326792 32.240273 
L 269.899361 32.531902 
L 272.574833 33.063201 
L 275.250306 33.825793 
L 277.925778 34.819824 
L 280.60125 36.046853 
L 283.379625 37.571005 
L 286.158 39.355124 
L 288.936375 41.406834 
L 291.71475 43.736415 
L 294.493125 46.35738 
L 297.2715 49.287262 
L 300.049875 52.548727 
L 302.725347 56.030128 
L 305.400819 59.880244 
L 307.973389 63.971363 
L 310.443056 68.306692 
L 312.912722 73.103975 
L 315.176583 77.978376 
L 317.337542 83.139923 
L 319.395597 88.616601 
L 321.35075 94.446928 
L 323.203 100.683578 
L 324.952347 107.398982 
L 326.495889 114.204653 
L 327.936528 121.563904 
L 329.274264 129.606219 
L 330.406194 137.706142 
L 331.435222 146.579892 
L 332.361347 156.429803 
L 333.184569 167.5521 
L 333.904889 180.40689 
L 334.522306 195.77255 
L 335.242625 217.02384 
L 336.683264 217.02384 
L 337.506486 190.211667 
L 338.226806 175.892159 
L 339.050028 164.286253 
L 339.976153 154.528384 
L 341.005181 146.130701 
L 342.137111 138.788937 
L 343.371944 132.299573 
L 344.709681 126.519348 
L 346.047417 121.683523 
L 347.488056 117.267877 
L 349.031597 113.238745 
L 350.678042 109.567004 
L 352.427389 106.2274 
L 354.176736 103.354296 
L 356.028986 100.727897 
L 357.984139 98.339434 
L 360.042194 96.180066 
L 362.203153 94.24091 
L 364.467014 92.513003 
L 366.833778 90.98722 
L 369.303444 89.654162 
L 371.978917 88.462548 
L 374.860194 87.42645 
L 377.947278 86.553518 
L 381.343069 85.826258 
L 385.150472 85.244014 
L 389.472389 84.814158 
L 394.617528 84.534342 
L 401.306208 84.408355 
L 413.96325 84.446591 
L 419.52 84.46029 
L 419.52 84.46029 
" clip-path="url(#p9ae05815f2)" style="fill: none; stroke-dasharray: 4.81,2.08; stroke-dashoffset: 0; stroke: #2ca02c; stroke-width: 1.3"/>
   </g>
   <g id="line2d_40">
    <path d="M 49.07 84.633498 
L 59.360278 84.743522 
L 66.975083 85.031368 
L 72.840542 85.464586 
L 77.779875 86.047206 
L 81.998889 86.760597 
L 85.806292 87.623758 
L 89.304986 88.643995 
L 92.494972 89.803226 
L 95.479153 91.122905 
L 98.257528 92.59208 
L 100.933 94.263421 
L 103.402667 96.066786 
L 105.769431 98.068676 
L 108.033292 100.27591 
L 110.19425 102.695131 
L 112.252306 105.332917 
L 114.207458 108.195868 
L 116.059708 111.290652 
L 117.911958 114.834202 
L 119.661306 118.684449 
L 121.30775 122.862818 
L 122.851292 127.394575 
L 124.291931 132.309684 
L 125.629667 137.643799 
L 126.8645 143.439375 
L 127.996431 149.746819 
L 129.128361 157.389712 
L 130.157389 166.040459 
L 130.980611 174.745875 
L 131.803833 186.019732 
L 132.42125 197.322225 
L 132.935764 210.110505 
L 133.244472 217.02384 
L 135.405431 217.02384 
L 136.331556 193.159097 
L 137.051875 180.899677 
L 137.875097 170.299448 
L 138.904125 160.031527 
L 140.036056 151.09672 
L 141.270889 143.170911 
L 142.608625 136.044994 
L 144.049264 129.577222 
L 145.592806 123.668389 
L 147.23925 118.247863 
L 148.988597 113.265284 
L 150.840847 108.685419 
L 152.693097 104.691626 
L 154.64825 101.00936 
L 156.603403 97.798318 
L 158.558556 95.001856 
L 160.513708 92.57856 
L 162.468861 90.498172 
L 164.424014 88.738947 
L 166.379167 87.285937 
L 168.231417 86.183414 
L 170.083667 85.343672 
L 171.833014 84.791913 
L 173.582361 84.477775 
L 175.228806 84.404785 
L 176.87525 84.555867 
L 178.521694 84.942115 
L 180.065236 85.530819 
L 181.608778 86.354696 
L 183.152319 87.433541 
L 184.695861 88.792475 
L 186.239403 90.463556 
L 187.782944 92.488123 
L 189.223583 94.744139 
L 190.664222 97.413149 
L 192.104861 100.572987 
L 193.442597 104.03977 
L 194.780333 108.142657 
L 196.015167 112.644635 
L 197.25 118.042562 
L 198.381931 124.04939 
L 199.410958 130.733921 
L 200.337083 138.181497 
L 201.160306 146.495718 
L 201.880625 155.797032 
L 202.600944 168.267973 
L 203.115458 180.648653 
L 203.629972 199.005705 
L 204.041583 217.02384 
L 204.967708 217.02384 
L 205.070611 215.063229 
L 205.482222 193.053017 
L 205.996736 175.876637 
L 206.717056 159.734496 
L 207.540278 146.64653 
L 208.466403 135.524714 
L 209.495431 125.789017 
L 210.627361 117.09216 
L 211.862194 109.20966 
L 213.302833 101.47812 
L 214.846375 94.443587 
L 216.492819 87.984795 
L 218.242167 82.016461 
L 220.094417 76.477369 
L 222.049569 71.323125 
L 224.107625 66.521525 
L 226.268583 62.049496 
L 228.532444 57.891011 
L 230.796306 54.193742 
L 233.163069 50.757282 
L 235.529833 47.708146 
L 237.9995 44.895776 
L 240.469167 42.425005 
L 242.938833 40.267026 
L 245.4085 38.398612 
L 247.878167 36.800847 
L 250.347833 35.458216 
L 252.8175 34.357932 
L 255.390069 33.458153 
L 257.962639 32.80012 
L 260.535208 32.375909 
L 263.107778 32.1792 
L 265.680347 32.205098 
L 268.252917 32.450008 
L 270.825486 32.911548 
L 273.500958 33.620074 
L 276.176431 34.561617 
L 278.851903 35.737601 
L 281.527375 37.150973 
L 284.30575 38.874949 
L 287.084125 40.867308 
L 289.8625 43.138055 
L 292.640875 45.700365 
L 295.41925 48.571359 
L 298.197625 51.773167 
L 300.873097 55.195738 
L 303.548569 58.984808 
L 306.121139 63.014044 
L 308.590806 67.285637 
L 311.060472 72.013033 
L 313.427236 77.045869 
L 315.588194 82.154382 
L 317.64625 87.572826 
L 319.601403 93.337447 
L 321.453653 99.497774 
L 323.203 106.121716 
L 324.746542 112.822151 
L 326.187181 120.049814 
L 327.524917 127.922084 
L 328.75975 136.606509 
L 329.788778 145.374132 
L 330.714903 155.077216 
L 331.538125 165.986392 
L 332.258444 178.512225 
L 332.875861 193.325243 
L 333.390375 211.649227 
L 333.596181 217.02384 
L 335.036819 217.02384 
L 335.139722 215.511261 
L 335.654236 196.672564 
L 336.271653 181.970927 
L 336.991972 169.896925 
L 337.815194 159.669679 
L 338.741319 150.827617 
L 339.770347 143.073313 
L 340.902278 136.203167 
L 342.137111 130.071448 
L 343.474847 124.570197 
L 344.915486 119.617213 
L 346.356125 115.423796 
L 347.899667 111.582404 
L 349.546111 108.071389 
L 351.295458 104.871216 
L 353.147708 101.964295 
L 354.999958 99.463236 
L 356.955111 97.188272 
L 359.013167 95.132705 
L 361.174125 93.289442 
L 363.437986 91.651017 
L 365.80475 90.209553 
L 368.377319 88.909476 
L 371.052792 87.806764 
L 373.934069 86.858461 
L 377.124056 86.049668 
L 380.62275 85.401133 
L 384.533056 84.911495 
L 388.957875 84.585943 
L 394.411722 84.419256 
L 401.923625 84.433978 
L 419.52 84.633498 
L 419.52 84.633498 
" clip-path="url(#p9ae05815f2)" style="fill: none; stroke-dasharray: 1.3,2.145; stroke-dashoffset: 0; stroke: #d62728; stroke-width: 1.3"/>
   </g>
   <g id="patch_3">
    <path d="M 49.07 217.02384 
L 49.07 22.92 
" style="fill: none; stroke: #000000; stroke-width: 0.8; stroke-linejoin: miter; stroke-linecap: square"/>
   </g>
   <g id="patch_4">
    <path d="M 419.52 217.02384 
L 419.52 22.92 
" style="fill: none; stroke: #000000; stroke-width: 0.8; stroke-linejoin: miter; stroke-linecap: square"/>
   </g>
   <g id="patch_5">
    <path d="M 49.07 217.02384 
L 419.52 217.02384 
" style="fill: none; stroke: #000000; stroke-width: 0.8; stroke-linejoin: miter; stroke-linecap: square"/>
   </g>
   <g id="patch_6">
    <path d="M 49.07 22.92 
L 419.52 22.92 
" style="fill: none; stroke: #000000; stroke-width: 0.8; stroke-linejoin: miter; stroke-linecap: square"/>
   </g>
   <g id="text_21">
    <!-- N = 4, d = lambda/2: steering with 3-bit phase states -->
    <g transform="translate(113.496016 16.92) scale(0.09 -0.09)">
     <defs>
      <path id="DejaVuSans-3d" d="M 678 2906 
L 4684 2906 
L 4684 2381 
L 678 2381 
L 678 2906 
z
M 678 1631 
L 4684 1631 
L 4684 1100 
L 678 1100 
L 678 1631 
z
" transform="scale(0.015625)"/>
      <path id="DejaVuSans-2f" d="M 1625 4666 
L 2156 4666 
L 531 -594 
L 0 -594 
L 1625 4666 
z
" transform="scale(0.015625)"/>
      <path id="DejaVuSans-3a" d="M 750 794 
L 1409 794 
L 1409 0 
L 750 0 
L 750 794 
z
M 750 3309 
L 1409 3309 
L 1409 2516 
L 750 2516 
L 750 3309 
z
" transform="scale(0.015625)"/>
      <path id="DejaVuSans-77" d="M 269 3500 
L 844 3500 
L 1563 769 
L 2278 3500 
L 2956 3500 
L 3675 769 
L 4391 3500 
L 4966 3500 
L 4050 0 
L 3372 0 
L 2619 2869 
L 1863 0 
L 1184 0 
L 269 3500 
z
" transform="scale(0.015625)"/>
      <path id="DejaVuSans-2d" d="M 313 2009 
L 1997 2009 
L 1997 1497 
L 313 1497 
L 313 2009 
z
" transform="scale(0.015625)"/>
      <path id="DejaVuSans-70" d="M 1159 525 
L 1159 -1331 
L 581 -1331 
L 581 3500 
L 1159 3500 
L 1159 2969 
Q 1341 3281 1617 3432 
Q 1894 3584 2278 3584 
Q 2916 3584 3314 3078 
Q 3713 2572 3713 1747 
Q 3713 922 3314 415 
Q 2916 -91 2278 -91 
Q 1894 -91 1617 61 
Q 1341 213 1159 525 
z
M 3116 1747 
Q 3116 2381 2855 2742 
Q 2594 3103 2138 3103 
Q 1681 3103 1420 2742 
Q 1159 2381 1159 1747 
Q 1159 1113 1420 752 
Q 1681 391 2138 391 
Q 2594 391 2855 752 
Q 3116 1113 3116 1747 
z
" transform="scale(0.015625)"/>
     </defs>
     <use xlink:href="#DejaVuSans-4e"/>
     <use xlink:href="#DejaVuSans-20" transform="translate(74.804688 0)"/>
     <use xlink:href="#DejaVuSans-3d" transform="translate(106.591797 0)"/>
     <use xlink:href="#DejaVuSans-20" transform="translate(190.380859 0)"/>
     <use xlink:href="#DejaVuSans-34" transform="translate(222.167969 0)"/>
     <use xlink:href="#DejaVuSans-2c" transform="translate(285.791016 0)"/>
     <use xlink:href="#DejaVuSans-20" transform="translate(317.578125 0)"/>
     <use xlink:href="#DejaVuSans-64" transform="translate(349.365234 0)"/>
     <use xlink:href="#DejaVuSans-20" transform="translate(412.841797 0)"/>
     <use xlink:href="#DejaVuSans-3d" transform="translate(444.628906 0)"/>
     <use xlink:href="#DejaVuSans-20" transform="translate(528.417969 0)"/>
     <use xlink:href="#DejaVuSans-6c" transform="translate(560.205078 0)"/>
     <use xlink:href="#DejaVuSans-61" transform="translate(587.988281 0)"/>
     <use xlink:href="#DejaVuSans-6d" transform="translate(649.267578 0)"/>
     <use xlink:href="#DejaVuSans-62" transform="translate(746.679688 0)"/>
     <use xlink:href="#DejaVuSans-64" transform="translate(810.15625 0)"/>
     <use xlink:href="#DejaVuSans-61" transform="translate(873.632812 0)"/>
     <use xlink:href="#DejaVuSans-2f" transform="translate(934.912109 0)"/>
     <use xlink:href="#DejaVuSans-32" transform="translate(968.603516 0)"/>
     <use xlink:href="#DejaVuSans-3a" transform="translate(1032.226562 0)"/>
     <use xlink:href="#DejaVuSans-20" transform="translate(1065.917969 0)"/>
     <use xlink:href="#DejaVuSans-73" transform="translate(1097.705078 0)"/>
     <use xlink:href="#DejaVuSans-74" transform="translate(1149.804688 0)"/>
     <use xlink:href="#DejaVuSans-65" transform="translate(1189.013672 0)"/>
     <use xlink:href="#DejaVuSans-65" transform="translate(1250.537109 0)"/>
     <use xlink:href="#DejaVuSans-72" transform="translate(1312.060547 0)"/>
     <use xlink:href="#DejaVuSans-69" transform="translate(1353.173828 0)"/>
     <use xlink:href="#DejaVuSans-6e" transform="translate(1380.957031 0)"/>
     <use xlink:href="#DejaVuSans-67" transform="translate(1444.335938 0)"/>
     <use xlink:href="#DejaVuSans-20" transform="translate(1507.8125 0)"/>
     <use xlink:href="#DejaVuSans-77" transform="translate(1539.599609 0)"/>
     <use xlink:href="#DejaVuSans-69" transform="translate(1621.386719 0)"/>
     <use xlink:href="#DejaVuSans-74" transform="translate(1649.169922 0)"/>
     <use xlink:href="#DejaVuSans-68" transform="translate(1688.378906 0)"/>
     <use xlink:href="#DejaVuSans-20" transform="translate(1751.757812 0)"/>
     <use xlink:href="#DejaVuSans-33" transform="translate(1783.544922 0)"/>
     <use xlink:href="#DejaVuSans-2d" transform="translate(1847.167969 0)"/>
     <use xlink:href="#DejaVuSans-62" transform="translate(1883.251953 0)"/>
     <use xlink:href="#DejaVuSans-69" transform="translate(1946.728516 0)"/>
     <use xlink:href="#DejaVuSans-74" transform="translate(1974.511719 0)"/>
     <use xlink:href="#DejaVuSans-20" transform="translate(2013.720703 0)"/>
     <use xlink:href="#DejaVuSans-70" transform="translate(2045.507812 0)"/>
     <use xlink:href="#DejaVuSans-68" transform="translate(2108.984375 0)"/>
     <use xlink:href="#DejaVuSans-61" transform="translate(2172.363281 0)"/>
     <use xlink:href="#DejaVuSans-73" transform="translate(2233.642578 0)"/>
     <use xlink:href="#DejaVuSans-65" transform="translate(2285.742188 0)"/>
     <use xlink:href="#DejaVuSans-20" transform="translate(2347.265625 0)"/>
     <use xlink:href="#DejaVuSans-73" transform="translate(2379.052734 0)"/>
     <use xlink:href="#DejaVuSans-74" transform="translate(2431.152344 0)"/>
     <use xlink:href="#DejaVuSans-61" transform="translate(2470.361328 0)"/>
     <use xlink:href="#DejaVuSans-74" transform="translate(2531.640625 0)"/>
     <use xlink:href="#DejaVuSans-65" transform="translate(2570.849609 0)"/>
     <use xlink:href="#DejaVuSans-73" transform="translate(2632.373047 0)"/>
    </g>
   </g>
   <g id="legend_1">
    <g id="patch_7">
     <path d="M 26.083828 276.170868 
L 442.506172 276.170868 
Q 443.906172 276.170868 443.906172 274.770868 
L 443.906172 254.921493 
Q 443.906172 253.521493 442.506172 253.521493 
L 26.083828 253.521493 
Q 24.683828 253.521493 24.683828 254.921493 
L 24.683828 274.770868 
Q 24.683828 276.170868 26.083828 276.170868 
z
" style="fill: #ffffff; opacity: 0.8; stroke: #cccccc; stroke-linejoin: miter"/>
    </g>
    <g id="line2d_41">
     <path d="M 27.483828 259.190399 
L 34.483828 259.190399 
L 41.483828 259.190399 
" style="fill: none; stroke: #1f77b4; stroke-width: 1.3; stroke-linecap: square"/>
    </g>
    <g id="text_22">
     <!-- broadside, all phases 0 -->
     <g transform="translate(47.083828 261.640399) scale(0.07 -0.07)">
      <use xlink:href="#DejaVuSans-62"/>
      <use xlink:href="#DejaVuSans-72" transform="translate(63.476562 0)"/>
      <use xlink:href="#DejaVuSans-6f" transform="translate(102.339844 0)"/>
      <use xlink:href="#DejaVuSans-61" transform="translate(163.521484 0)"/>
      <use xlink:href="#DejaVuSans-64" transform="translate(224.800781 0)"/>
      <use xlink:href="#DejaVuSans-73" transform="translate(288.277344 0)"/>
      <use xlink:href="#DejaVuSans-69" transform="translate(340.376953 0)"/>
      <use xlink:href="#DejaVuSans-64" transform="translate(368.160156 0)"/>
      <use xlink:href="#DejaVuSans-65" transform="translate(431.636719 0)"/>
      <use xlink:href="#DejaVuSans-2c" transform="translate(493.160156 0)"/>
      <use xlink:href="#DejaVuSans-20" transform="translate(524.947266 0)"/>
      <use xlink:href="#DejaVuSans-61" transform="translate(556.734375 0)"/>
      <use xlink:href="#DejaVuSans-6c" transform="translate(618.013672 0)"/>
      <use xlink:href="#DejaVuSans-6c" transform="translate(645.796875 0)"/>
      <use xlink:href="#DejaVuSans-20" transform="translate(673.580078 0)"/>
      <use xlink:href="#DejaVuSans-70" transform="translate(705.367188 0)"/>
      <use xlink:href="#DejaVuSans-68" transform="translate(768.84375 0)"/>
      <use xlink:href="#DejaVuSans-61" transform="translate(832.222656 0)"/>
      <use xlink:href="#DejaVuSans-73" transform="translate(893.501953 0)"/>
      <use xlink:href="#DejaVuSans-65" transform="translate(945.601562 0)"/>
      <use xlink:href="#DejaVuSans-73" transform="translate(1007.125 0)"/>
      <use xlink:href="#DejaVuSans-20" transform="translate(1059.224609 0)"/>
      <use xlink:href="#DejaVuSans-30" transform="translate(1091.011719 0)"/>
     </g>
    </g>
    <g id="line2d_42">
     <path d="M 27.483828 269.465087 
L 34.483828 269.465087 
L 41.483828 269.465087 
" style="fill: none; stroke: #ff7f0e; stroke-width: 1.3; stroke-linecap: square"/>
    </g>
    <g id="text_23">
     <!-- 30 deg: progressive -90 deg, exact on the 3-bit grid -->
     <g transform="translate(47.083828 271.915087) scale(0.07 -0.07)">
      <defs>
       <path id="DejaVuSans-39" d="M 703 97 
L 703 672 
Q 941 559 1184 500 
Q 1428 441 1663 441 
Q 2288 441 2617 861 
Q 2947 1281 2994 2138 
Q 2813 1869 2534 1725 
Q 2256 1581 1919 1581 
Q 1219 1581 811 2004 
Q 403 2428 403 3163 
Q 403 3881 828 4315 
Q 1253 4750 1959 4750 
Q 2769 4750 3195 4129 
Q 3622 3509 3622 2328 
Q 3622 1225 3098 567 
Q 2575 -91 1691 -91 
Q 1453 -91 1209 -44 
Q 966 3 703 97 
z
M 1959 2075 
Q 2384 2075 2632 2365 
Q 2881 2656 2881 3163 
Q 2881 3666 2632 3958 
Q 2384 4250 1959 4250 
Q 1534 4250 1286 3958 
Q 1038 3666 1038 3163 
Q 1038 2656 1286 2365 
Q 1534 2075 1959 2075 
z
" transform="scale(0.015625)"/>
       <path id="DejaVuSans-78" d="M 3513 3500 
L 2247 1797 
L 3578 0 
L 2900 0 
L 1881 1375 
L 863 0 
L 184 0 
L 1544 1831 
L 300 3500 
L 978 3500 
L 1906 2253 
L 2834 3500 
L 3513 3500 
z
" transform="scale(0.015625)"/>
       <path id="DejaVuSans-63" d="M 3122 3366 
L 3122 2828 
Q 2878 2963 2633 3030 
Q 2388 3097 2138 3097 
Q 1578 3097 1268 2742 
Q 959 2388 959 1747 
Q 959 1106 1268 751 
Q 1578 397 2138 397 
Q 2388 397 2633 464 
Q 2878 531 3122 666 
L 3122 134 
Q 2881 22 2623 -34 
Q 2366 -91 2075 -91 
Q 1284 -91 818 406 
Q 353 903 353 1747 
Q 353 2603 823 3093 
Q 1294 3584 2113 3584 
Q 2378 3584 2631 3529 
Q 2884 3475 3122 3366 
z
" transform="scale(0.015625)"/>
      </defs>
      <use xlink:href="#DejaVuSans-33"/>
      <use xlink:href="#DejaVuSans-30" transform="translate(63.623047 0)"/>
      <use xlink:href="#DejaVuSans-20" transform="translate(127.246094 0)"/>
      <use xlink:href="#DejaVuSans-64" transform="translate(159.033203 0)"/>
      <use xlink:href="#DejaVuSans-65" transform="translate(222.509766 0)"/>
      <use xlink:href="#DejaVuSans-67" transform="translate(284.033203 0)"/>
      <use xlink:href="#DejaVuSans-3a" transform="translate(347.509766 0)"/>
      <use xlink:href="#DejaVuSans-20" transform="translate(381.201172 0)"/>
      <use xlink:href="#DejaVuSans-70" transform="translate(412.988281 0)"/>
      <use xlink:href="#DejaVuSans-72" transform="translate(476.464844 0)"/>
      <use xlink:href="#DejaVuSans-6f" transform="translate(515.328125 0)"/>
      <use xlink:href="#DejaVuSans-67" transform="translate(576.509766 0)"/>
      <use xlink:href="#DejaVuSans-72" transform="translate(639.986328 0)"/>
      <use xlink:href="#DejaVuSans-65" transform="translate(678.849609 0)"/>
      <use xlink:href="#DejaVuSans-73" transform="translate(740.373047 0)"/>
      <use xlink:href="#DejaVuSans-73" transform="translate(792.472656 0)"/>
      <use xlink:href="#DejaVuSans-69" transform="translate(844.572266 0)"/>
      <use xlink:href="#DejaVuSans-76" transform="translate(872.355469 0)"/>
      <use xlink:href="#DejaVuSans-65" transform="translate(931.535156 0)"/>
      <use xlink:href="#DejaVuSans-20" transform="translate(993.058594 0)"/>
      <use xlink:href="#DejaVuSans-2d" transform="translate(1024.845703 0)"/>
      <use xlink:href="#DejaVuSans-39" transform="translate(1060.929688 0)"/>
      <use xlink:href="#DejaVuSans-30" transform="translate(1124.552734 0)"/>
      <use xlink:href="#DejaVuSans-20" transform="translate(1188.175781 0)"/>
      <use xlink:href="#DejaVuSans-64" transform="translate(1219.962891 0)"/>
      <use xlink:href="#DejaVuSans-65" transform="translate(1283.439453 0)"/>
      <use xlink:href="#DejaVuSans-67" transform="translate(1344.962891 0)"/>
      <use xlink:href="#DejaVuSans-2c" transform="translate(1408.439453 0)"/>
      <use xlink:href="#DejaVuSans-20" transform="translate(1440.226562 0)"/>
      <use xlink:href="#DejaVuSans-65" transform="translate(1472.013672 0)"/>
      <use xlink:href="#DejaVuSans-78" transform="translate(1531.787109 0)"/>
      <use xlink:href="#DejaVuSans-61" transform="translate(1590.966797 0)"/>
      <use xlink:href="#DejaVuSans-63" transform="translate(1652.246094 0)"/>
      <use xlink:href="#DejaVuSans-74" transform="translate(1707.226562 0)"/>
      <use xlink:href="#DejaVuSans-20" transform="translate(1746.435547 0)"/>
      <use xlink:href="#DejaVuSans-6f" transform="translate(1778.222656 0)"/>
      <use xlink:href="#DejaVuSans-6e" transform="translate(1839.404297 0)"/>
      <use xlink:href="#DejaVuSans-20" transform="translate(1902.783203 0)"/>
      <use xlink:href="#DejaVuSans-74" transform="translate(1934.570312 0)"/>
      <use xlink:href="#DejaVuSans-68" transform="translate(1973.779297 0)"/>
      <use xlink:href="#DejaVuSans-65" transform="translate(2037.158203 0)"/>
      <use xlink:href="#DejaVuSans-20" transform="translate(2098.681641 0)"/>
      <use xlink:href="#DejaVuSans-33" transform="translate(2130.46875 0)"/>
      <use xlink:href="#DejaVuSans-2d" transform="translate(2194.091797 0)"/>
      <use xlink:href="#DejaVuSans-62" transform="translate(2230.175781 0)"/>
      <use xlink:href="#DejaVuSans-69" transform="translate(2293.652344 0)"/>
      <use xlink:href="#DejaVuSans-74" transform="translate(2321.435547 0)"/>
      <use xlink:href="#DejaVuSans-20" transform="translate(2360.644531 0)"/>
      <use xlink:href="#DejaVuSans-67" transform="translate(2392.431641 0)"/>
      <use xlink:href="#DejaVuSans-72" transform="translate(2455.908203 0)"/>
      <use xlink:href="#DejaVuSans-69" transform="translate(2497.021484 0)"/>
      <use xlink:href="#DejaVuSans-64" transform="translate(2524.804688 0)"/>
     </g>
    </g>
    <g id="line2d_43">
     <path d="M 242.265703 259.190399 
L 249.265703 259.190399 
L 256.265703 259.190399 
" style="fill: none; stroke-dasharray: 4.81,2.08; stroke-dashoffset: 0; stroke: #2ca02c; stroke-width: 1.3"/>
    </g>
    <g id="text_24">
     <!-- 15 deg requested, continuous phases -->
     <g transform="translate(261.865703 261.640399) scale(0.07 -0.07)">
      <defs>
       <path id="DejaVuSans-71" d="M 947 1747 
Q 947 1113 1208 752 
Q 1469 391 1925 391 
Q 2381 391 2643 752 
Q 2906 1113 2906 1747 
Q 2906 2381 2643 2742 
Q 2381 3103 1925 3103 
Q 1469 3103 1208 2742 
Q 947 2381 947 1747 
z
M 2906 525 
Q 2725 213 2448 61 
Q 2172 -91 1784 -91 
Q 1150 -91 751 415 
Q 353 922 353 1747 
Q 353 2572 751 3078 
Q 1150 3584 1784 3584 
Q 2172 3584 2448 3432 
Q 2725 3281 2906 2969 
L 2906 3500 
L 3481 3500 
L 3481 -1331 
L 2906 -1331 
L 2906 525 
z
" transform="scale(0.015625)"/>
       <path id="DejaVuSans-75" d="M 544 1381 
L 544 3500 
L 1119 3500 
L 1119 1403 
Q 1119 906 1312 657 
Q 1506 409 1894 409 
Q 2359 409 2629 706 
Q 2900 1003 2900 1516 
L 2900 3500 
L 3475 3500 
L 3475 0 
L 2900 0 
L 2900 538 
Q 2691 219 2414 64 
Q 2138 -91 1772 -91 
Q 1169 -91 856 284 
Q 544 659 544 1381 
z
M 1991 3584 
L 1991 3584 
z
" transform="scale(0.015625)"/>
      </defs>
      <use xlink:href="#DejaVuSans-31"/>
      <use xlink:href="#DejaVuSans-35" transform="translate(63.623047 0)"/>
      <use xlink:href="#DejaVuSans-20" transform="translate(127.246094 0)"/>
      <use xlink:href="#DejaVuSans-64" transform="translate(159.033203 0)"/>
      <use xlink:href="#DejaVuSans-65" transform="translate(222.509766 0)"/>
      <use xlink:href="#DejaVuSans-67" transform="translate(284.033203 0)"/>
      <use xlink:href="#DejaVuSans-20" transform="translate(347.509766 0)"/>
      <use xlink:href="#DejaVuSans-72" transform="translate(379.296875 0)"/>
      <use xlink:href="#DejaVuSans-65" transform="translate(418.160156 0)"/>
      <use xlink:href="#DejaVuSans-71" transform="translate(479.683594 0)"/>
      <use xlink:href="#DejaVuSans-75" transform="translate(543.160156 0)"/>
      <use xlink:href="#DejaVuSans-65" transform="translate(606.539062 0)"/>
      <use xlink:href="#DejaVuSans-73" transform="translate(668.0625 0)"/>
      <use xlink:href="#DejaVuSans-74" transform="translate(720.162109 0)"/>
      <use xlink:href="#DejaVuSans-65" transform="translate(759.371094 0)"/>
      <use xlink:href="#DejaVuSans-64" transform="translate(820.894531 0)"/>
      <use xlink:href="#DejaVuSans-2c" transform="translate(884.371094 0)"/>
      <use xlink:href="#DejaVuSans-20" transform="translate(916.158203 0)"/>
      <use xlink:href="#DejaVuSans-63" transform="translate(947.945312 0)"/>
      <use xlink:href="#DejaVuSans-6f" transform="translate(1002.925781 0)"/>
      <use xlink:href="#DejaVuSans-6e" transform="translate(1064.107422 0)"/>
      <use xlink:href="#DejaVuSans-74" transform="translate(1127.486328 0)"/>
      <use xlink:href="#DejaVuSans-69" transform="translate(1166.695312 0)"/>
      <use xlink:href="#DejaVuSans-6e" transform="translate(1194.478516 0)"/>
      <use xlink:href="#DejaVuSans-75" transform="translate(1257.857422 0)"/>
      <use xlink:href="#DejaVuSans-6f" transform="translate(1321.236328 0)"/>
      <use xlink:href="#DejaVuSans-75" transform="translate(1382.417969 0)"/>
      <use xlink:href="#DejaVuSans-73" transform="translate(1445.796875 0)"/>
      <use xlink:href="#DejaVuSans-20" transform="translate(1497.896484 0)"/>
      <use xlink:href="#DejaVuSans-70" transform="translate(1529.683594 0)"/>
      <use xlink:href="#DejaVuSans-68" transform="translate(1593.160156 0)"/>
      <use xlink:href="#DejaVuSans-61" transform="translate(1656.539062 0)"/>
      <use xlink:href="#DejaVuSans-73" transform="translate(1717.818359 0)"/>
      <use xlink:href="#DejaVuSans-65" transform="translate(1769.917969 0)"/>
      <use xlink:href="#DejaVuSans-73" transform="translate(1831.441406 0)"/>
     </g>
    </g>
    <g id="line2d_44">
     <path d="M 242.265703 269.465087 
L 249.265703 269.465087 
L 256.265703 269.465087 
" style="fill: none; stroke-dasharray: 1.3,2.145; stroke-dashoffset: 0; stroke: #d62728; stroke-width: 1.3"/>
    </g>
    <g id="text_25">
     <!-- 15 deg requested, phases rounded to 45 deg steps -->
     <g transform="translate(261.865703 271.915087) scale(0.07 -0.07)">
      <use xlink:href="#DejaVuSans-31"/>
      <use xlink:href="#DejaVuSans-35" transform="translate(63.623047 0)"/>
      <use xlink:href="#DejaVuSans-20" transform="translate(127.246094 0)"/>
      <use xlink:href="#DejaVuSans-64" transform="translate(159.033203 0)"/>
      <use xlink:href="#DejaVuSans-65" transform="translate(222.509766 0)"/>
      <use xlink:href="#DejaVuSans-67" transform="translate(284.033203 0)"/>
      <use xlink:href="#DejaVuSans-20" transform="translate(347.509766 0)"/>
      <use xlink:href="#DejaVuSans-72" transform="translate(379.296875 0)"/>
      <use xlink:href="#DejaVuSans-65" transform="translate(418.160156 0)"/>
      <use xlink:href="#DejaVuSans-71" transform="translate(479.683594 0)"/>
      <use xlink:href="#DejaVuSans-75" transform="translate(543.160156 0)"/>
      <use xlink:href="#DejaVuSans-65" transform="translate(606.539062 0)"/>
      <use xlink:href="#DejaVuSans-73" transform="translate(668.0625 0)"/>
      <use xlink:href="#DejaVuSans-74" transform="translate(720.162109 0)"/>
      <use xlink:href="#DejaVuSans-65" transform="translate(759.371094 0)"/>
      <use xlink:href="#DejaVuSans-64" transform="translate(820.894531 0)"/>
      <use xlink:href="#DejaVuSans-2c" transform="translate(884.371094 0)"/>
      <use xlink:href="#DejaVuSans-20" transform="translate(916.158203 0)"/>
      <use xlink:href="#DejaVuSans-70" transform="translate(947.945312 0)"/>
      <use xlink:href="#DejaVuSans-68" transform="translate(1011.421875 0)"/>
      <use xlink:href="#DejaVuSans-61" transform="translate(1074.800781 0)"/>
      <use xlink:href="#DejaVuSans-73" transform="translate(1136.080078 0)"/>
      <use xlink:href="#DejaVuSans-65" transform="translate(1188.179688 0)"/>
      <use xlink:href="#DejaVuSans-73" transform="translate(1249.703125 0)"/>
      <use xlink:href="#DejaVuSans-20" transform="translate(1301.802734 0)"/>
      <use xlink:href="#DejaVuSans-72" transform="translate(1333.589844 0)"/>
      <use xlink:href="#DejaVuSans-6f" transform="translate(1372.453125 0)"/>
      <use xlink:href="#DejaVuSans-75" transform="translate(1433.634766 0)"/>
      <use xlink:href="#DejaVuSans-6e" transform="translate(1497.013672 0)"/>
      <use xlink:href="#DejaVuSans-64" transform="translate(1560.392578 0)"/>
      <use xlink:href="#DejaVuSans-65" transform="translate(1623.869141 0)"/>
      <use xlink:href="#DejaVuSans-64" transform="translate(1685.392578 0)"/>
      <use xlink:href="#DejaVuSans-20" transform="translate(1748.869141 0)"/>
      <use xlink:href="#DejaVuSans-74" transform="translate(1780.65625 0)"/>
      <use xlink:href="#DejaVuSans-6f" transform="translate(1819.865234 0)"/>
      <use xlink:href="#DejaVuSans-20" transform="translate(1881.046875 0)"/>
      <use xlink:href="#DejaVuSans-34" transform="translate(1912.833984 0)"/>
      <use xlink:href="#DejaVuSans-35" transform="translate(1976.457031 0)"/>
      <use xlink:href="#DejaVuSans-20" transform="translate(2040.080078 0)"/>
      <use xlink:href="#DejaVuSans-64" transform="translate(2071.867188 0)"/>
      <use xlink:href="#DejaVuSans-65" transform="translate(2135.34375 0)"/>
      <use xlink:href="#DejaVuSans-67" transform="translate(2196.867188 0)"/>
      <use xlink:href="#DejaVuSans-20" transform="translate(2260.34375 0)"/>
      <use xlink:href="#DejaVuSans-73" transform="translate(2292.130859 0)"/>
      <use xlink:href="#DejaVuSans-74" transform="translate(2344.230469 0)"/>
      <use xlink:href="#DejaVuSans-65" transform="translate(2383.439453 0)"/>
      <use xlink:href="#DejaVuSans-70" transform="translate(2444.962891 0)"/>
      <use xlink:href="#DejaVuSans-73" transform="translate(2508.439453 0)"/>
     </g>
    </g>
   </g>
  </g>
  <g id="text_26">
   <!-- analytical illustration: ideal isotropic elements, array factor only, no coupling -->
   <g transform="translate(4.608 299.376) scale(0.06 -0.06)">
    <defs>
     <path id="DejaVuSans-Oblique-61" d="M 3438 1997 
L 3047 0 
L 2472 0 
L 2578 531 
Q 2325 219 2001 64 
Q 1678 -91 1281 -91 
Q 834 -91 548 182 
Q 263 456 263 884 
Q 263 1497 752 1853 
Q 1241 2209 2100 2209 
L 2900 2209 
L 2931 2363 
Q 2938 2388 2941 2417 
Q 2944 2447 2944 2509 
Q 2944 2788 2717 2942 
Q 2491 3097 2081 3097 
Q 1800 3097 1504 3025 
Q 1209 2953 897 2809 
L 997 3341 
Q 1322 3463 1633 3523 
Q 1944 3584 2234 3584 
Q 2853 3584 3176 3315 
Q 3500 3047 3500 2534 
Q 3500 2431 3484 2292 
Q 3469 2153 3438 1997 
z
M 2816 1759 
L 2241 1759 
Q 1534 1759 1195 1570 
Q 856 1381 856 984 
Q 856 709 1029 553 
Q 1203 397 1509 397 
Q 1978 397 2328 733 
Q 2678 1069 2791 1631 
L 2816 1759 
z
" transform="scale(0.015625)"/>
     <path id="DejaVuSans-Oblique-6e" d="M 3566 2113 
L 3156 0 
L 2578 0 
L 2988 2091 
Q 3016 2238 3031 2350 
Q 3047 2463 3047 2528 
Q 3047 2791 2881 2937 
Q 2716 3084 2419 3084 
Q 1956 3084 1622 2776 
Q 1288 2469 1184 1941 
L 800 0 
L 225 0 
L 903 3500 
L 1478 3500 
L 1363 2950 
Q 1603 3253 1940 3418 
Q 2278 3584 2650 3584 
Q 3113 3584 3367 3334 
Q 3622 3084 3622 2631 
Q 3622 2519 3608 2391 
Q 3594 2263 3566 2113 
z
" transform="scale(0.015625)"/>
     <path id="DejaVuSans-Oblique-6c" d="M 1172 4863 
L 1747 4863 
L 800 0 
L 225 0 
L 1172 4863 
z
" transform="scale(0.015625)"/>
     <path id="DejaVuSans-Oblique-79" d="M 1588 -325 
Q 1188 -997 936 -1164 
Q 684 -1331 294 -1331 
L -159 -1331 
L -63 -850 
L 269 -850 
Q 509 -850 678 -719 
Q 847 -588 1056 -206 
L 1234 128 
L 459 3500 
L 1069 3500 
L 1650 819 
L 3256 3500 
L 3859 3500 
L 1588 -325 
z
" transform="scale(0.015625)"/>
     <path id="DejaVuSans-Oblique-74" d="M 2706 3500 
L 2619 3053 
L 1472 3053 
L 1100 1153 
Q 1081 1047 1072 975 
Q 1063 903 1063 863 
Q 1063 663 1183 572 
Q 1303 481 1569 481 
L 2150 481 
L 2053 0 
L 1503 0 
Q 991 0 739 200 
Q 488 400 488 806 
Q 488 878 497 964 
Q 506 1050 525 1153 
L 897 3053 
L 409 3053 
L 500 3500 
L 978 3500 
L 1172 4494 
L 1747 4494 
L 1556 3500 
L 2706 3500 
z
" transform="scale(0.015625)"/>
     <path id="DejaVuSans-Oblique-69" d="M 1172 4863 
L 1747 4863 
L 1606 4134 
L 1031 4134 
L 1172 4863 
z
M 909 3500 
L 1484 3500 
L 800 0 
L 225 0 
L 909 3500 
z
" transform="scale(0.015625)"/>
     <path id="DejaVuSans-Oblique-63" d="M 3431 3366 
L 3316 2797 
Q 3109 2947 2876 3022 
Q 2644 3097 2394 3097 
Q 2119 3097 1870 3000 
Q 1622 2903 1453 2725 
Q 1184 2453 1037 2087 
Q 891 1722 891 1331 
Q 891 859 1127 628 
Q 1363 397 1844 397 
Q 2081 397 2348 469 
Q 2616 541 2906 684 
L 2797 116 
Q 2547 13 2283 -39 
Q 2019 -91 1741 -91 
Q 1044 -91 669 257 
Q 294 606 294 1253 
Q 294 1797 489 2255 
Q 684 2713 1069 3078 
Q 1331 3328 1684 3456 
Q 2038 3584 2456 3584 
Q 2700 3584 2940 3529 
Q 3181 3475 3431 3366 
z
" transform="scale(0.015625)"/>
     <path id="DejaVuSans-Oblique-20" transform="scale(0.015625)"/>
     <path id="DejaVuSans-Oblique-75" d="M 428 1388 
L 838 3500 
L 1416 3500 
L 1006 1409 
Q 975 1256 961 1147 
Q 947 1038 947 966 
Q 947 700 1109 554 
Q 1272 409 1569 409 
Q 2031 409 2368 721 
Q 2706 1034 2809 1563 
L 3194 3500 
L 3769 3500 
L 3091 0 
L 2516 0 
L 2631 550 
Q 2388 244 2052 76 
Q 1716 -91 1338 -91 
Q 878 -91 622 161 
Q 366 413 366 863 
Q 366 956 381 1097 
Q 397 1238 428 1388 
z
" transform="scale(0.015625)"/>
     <path id="DejaVuSans-Oblique-73" d="M 3200 3397 
L 3091 2853 
Q 2863 2978 2609 3040 
Q 2356 3103 2088 3103 
Q 1634 3103 1373 2948 
Q 1113 2794 1113 2528 
Q 1113 2219 1719 2053 
Q 1766 2041 1788 2034 
L 1972 1978 
Q 2547 1819 2739 1644 
Q 2931 1469 2931 1166 
Q 2931 609 2489 259 
Q 2047 -91 1331 -91 
Q 1053 -91 747 -37 
Q 441 16 72 128 
L 184 722 
Q 500 559 806 475 
Q 1113 391 1394 391 
Q 1816 391 2080 572 
Q 2344 753 2344 1031 
Q 2344 1331 1650 1516 
L 1591 1531 
L 1394 1581 
Q 956 1697 753 1886 
Q 550 2075 550 2369 
Q 550 2928 970 3256 
Q 1391 3584 2113 3584 
Q 2397 3584 2667 3537 
Q 2938 3491 3200 3397 
z
" transform="scale(0.015625)"/>
     <path id="DejaVuSans-Oblique-72" d="M 2853 2969 
Q 2766 3016 2653 3041 
Q 2541 3066 2413 3066 
Q 1953 3066 1609 2717 
Q 1266 2369 1153 1784 
L 800 0 
L 225 0 
L 909 3500 
L 1484 3500 
L 1375 2956 
Q 1603 3259 1920 3421 
Q 2238 3584 2597 3584 
Q 2691 3584 2781 3573 
Q 2872 3563 2963 3538 
L 2853 2969 
z
" transform="scale(0.015625)"/>
     <path id="DejaVuSans-Oblique-6f" d="M 1625 -91 
Q 1009 -91 651 289 
Q 294 669 294 1325 
Q 294 1706 417 2101 
Q 541 2497 738 2766 
Q 1047 3184 1428 3384 
Q 1809 3584 2291 3584 
Q 2888 3584 3255 3212 
Q 3622 2841 3622 2241 
Q 3622 1825 3500 1412 
Q 3378 1000 3181 728 
Q 2875 309 2494 109 
Q 2113 -91 1625 -91 
z
M 891 1344 
Q 891 869 1089 633 
Q 1288 397 1691 397 
Q 2269 397 2648 901 
Q 3028 1406 3028 2181 
Q 3028 2634 2825 2865 
Q 2622 3097 2228 3097 
Q 1903 3097 1650 2945 
Q 1397 2794 1197 2484 
Q 1050 2253 970 1956 
Q 891 1659 891 1344 
z
" transform="scale(0.015625)"/>
     <path id="DejaVuSans-Oblique-3a" d="M 978 3309 
L 1638 3309 
L 1484 2516 
L 825 2516 
L 978 3309 
z
M 488 794 
L 1147 794 
L 991 0 
L 331 0 
L 488 794 
z
" transform="scale(0.015625)"/>
     <path id="DejaVuSans-Oblique-64" d="M 2675 525 
Q 2444 222 2128 65 
Q 1813 -91 1428 -91 
Q 903 -91 598 267 
Q 294 625 294 1247 
Q 294 1766 478 2236 
Q 663 2706 1013 3078 
Q 1244 3325 1534 3454 
Q 1825 3584 2144 3584 
Q 2481 3584 2739 3421 
Q 2997 3259 3138 2956 
L 3513 4863 
L 4091 4863 
L 3144 0 
L 2566 0 
L 2675 525 
z
M 891 1350 
Q 891 897 1095 644 
Q 1300 391 1663 391 
Q 1931 391 2161 520 
Q 2391 650 2566 903 
Q 2750 1166 2856 1509 
Q 2963 1853 2963 2188 
Q 2963 2622 2758 2865 
Q 2553 3109 2194 3109 
Q 1922 3109 1687 2981 
Q 1453 2853 1288 2613 
Q 1106 2353 998 2009 
Q 891 1666 891 1350 
z
" transform="scale(0.015625)"/>
     <path id="DejaVuSans-Oblique-65" d="M 3078 2063 
Q 3088 2113 3092 2166 
Q 3097 2219 3097 2272 
Q 3097 2653 2873 2875 
Q 2650 3097 2266 3097 
Q 1838 3097 1509 2826 
Q 1181 2556 1013 2059 
L 3078 2063 
z
M 3578 1613 
L 903 1613 
Q 884 1494 878 1425 
Q 872 1356 872 1306 
Q 872 872 1139 634 
Q 1406 397 1894 397 
Q 2269 397 2603 481 
Q 2938 566 3225 728 
L 3116 159 
Q 2806 34 2476 -28 
Q 2147 -91 1806 -91 
Q 1078 -91 686 257 
Q 294 606 294 1247 
Q 294 1794 489 2264 
Q 684 2734 1063 3103 
Q 1306 3334 1642 3459 
Q 1978 3584 2356 3584 
Q 2950 3584 3301 3228 
Q 3653 2872 3653 2272 
Q 3653 2128 3634 1964 
Q 3616 1800 3578 1613 
z
" transform="scale(0.015625)"/>
     <path id="DejaVuSans-Oblique-70" d="M 3175 2156 
Q 3175 2616 2975 2859 
Q 2775 3103 2400 3103 
Q 2144 3103 1911 2972 
Q 1678 2841 1497 2591 
Q 1319 2344 1212 1994 
Q 1106 1644 1106 1300 
Q 1106 863 1306 627 
Q 1506 391 1875 391 
Q 2147 391 2380 519 
Q 2613 647 2778 891 
Q 2956 1147 3065 1494 
Q 3175 1841 3175 2156 
z
M 1394 2969 
Q 1625 3272 1939 3428 
Q 2253 3584 2638 3584 
Q 3175 3584 3472 3232 
Q 3769 2881 3769 2247 
Q 3769 1728 3584 1258 
Q 3400 788 3053 416 
Q 2822 169 2531 39 
Q 2241 -91 1919 -91 
Q 1547 -91 1294 64 
Q 1041 219 916 525 
L 556 -1331 
L -19 -1331 
L 922 3500 
L 1497 3500 
L 1394 2969 
z
" transform="scale(0.015625)"/>
     <path id="DejaVuSans-Oblique-6d" d="M 5747 2113 
L 5338 0 
L 4763 0 
L 5166 2094 
Q 5191 2228 5203 2325 
Q 5216 2422 5216 2491 
Q 5216 2772 5059 2928 
Q 4903 3084 4622 3084 
Q 4203 3084 3875 2770 
Q 3547 2456 3450 1953 
L 3066 0 
L 2491 0 
L 2900 2094 
Q 2925 2209 2937 2307 
Q 2950 2406 2950 2484 
Q 2950 2769 2794 2926 
Q 2638 3084 2363 3084 
Q 1938 3084 1609 2770 
Q 1281 2456 1184 1953 
L 800 0 
L 225 0 
L 909 3500 
L 1484 3500 
L 1375 2956 
Q 1609 3263 1923 3423 
Q 2238 3584 2597 3584 
Q 2978 3584 3223 3384 
Q 3469 3184 3519 2828 
Q 3781 3197 4126 3390 
Q 4472 3584 4856 3584 
Q 5306 3584 5551 3325 
Q 5797 3066 5797 2591 
Q 5797 2488 5784 2364 
Q 5772 2241 5747 2113 
z
" transform="scale(0.015625)"/>
     <path id="DejaVuSans-Oblique-2c" d="M 575 794 
L 1234 794 
L 1131 256 
L 422 -744 
L 19 -744 
L 469 256 
L 575 794 
z
" transform="scale(0.015625)"/>
     <path id="DejaVuSans-Oblique-66" d="M 3059 4863 
L 2969 4384 
L 2419 4384 
Q 2106 4384 1964 4261 
Q 1822 4138 1753 3809 
L 1691 3500 
L 2638 3500 
L 2553 3053 
L 1606 3053 
L 1013 0 
L 434 0 
L 1031 3053 
L 481 3053 
L 563 3500 
L 1113 3500 
L 1159 3744 
Q 1278 4363 1576 4613 
Q 1875 4863 2516 4863 
L 3059 4863 
z
" transform="scale(0.015625)"/>
     <path id="DejaVuSans-Oblique-67" d="M 3816 3500 
L 3219 434 
Q 3047 -456 2561 -893 
Q 2075 -1331 1253 -1331 
Q 950 -1331 690 -1286 
Q 431 -1241 206 -1147 
L 313 -588 
Q 525 -725 762 -790 
Q 1000 -856 1269 -856 
Q 1816 -856 2167 -557 
Q 2519 -259 2631 300 
L 2681 563 
Q 2441 288 2122 144 
Q 1803 0 1434 0 
Q 903 0 598 351 
Q 294 703 294 1319 
Q 294 1803 478 2267 
Q 663 2731 997 3091 
Q 1219 3328 1514 3456 
Q 1809 3584 2131 3584 
Q 2484 3584 2746 3420 
Q 3009 3256 3138 2956 
L 3238 3500 
L 3816 3500 
z
M 2950 2216 
Q 2950 2641 2750 2872 
Q 2550 3103 2181 3103 
Q 1953 3103 1747 3012 
Q 1541 2922 1394 2759 
Q 1156 2491 1023 2127 
Q 891 1763 891 1375 
Q 891 944 1092 712 
Q 1294 481 1672 481 
Q 2219 481 2584 976 
Q 2950 1472 2950 2216 
z
" transform="scale(0.015625)"/>
    </defs>
    <use xlink:href="#DejaVuSans-Oblique-61"/>
    <use xlink:href="#DejaVuSans-Oblique-6e" transform="translate(61.279297 0)"/>
    <use xlink:href="#DejaVuSans-Oblique-61" transform="translate(124.658203 0)"/>
    <use xlink:href="#DejaVuSans-Oblique-6c" transform="translate(185.9375 0)"/>
    <use xlink:href="#DejaVuSans-Oblique-79" transform="translate(213.720703 0)"/>
    <use xlink:href="#DejaVuSans-Oblique-74" transform="translate(272.900391 0)"/>
    <use xlink:href="#DejaVuSans-Oblique-69" transform="translate(312.109375 0)"/>
    <use xlink:href="#DejaVuSans-Oblique-63" transform="translate(339.892578 0)"/>
    <use xlink:href="#DejaVuSans-Oblique-61" transform="translate(394.873047 0)"/>
    <use xlink:href="#DejaVuSans-Oblique-6c" transform="translate(456.152344 0)"/>
    <use xlink:href="#DejaVuSans-Oblique-20" transform="translate(483.935547 0)"/>
    <use xlink:href="#DejaVuSans-Oblique-69" transform="translate(515.722656 0)"/>
    <use xlink:href="#DejaVuSans-Oblique-6c" transform="translate(543.505859 0)"/>
    <use xlink:href="#DejaVuSans-Oblique-6c" transform="translate(571.289062 0)"/>
    <use xlink:href="#DejaVuSans-Oblique-75" transform="translate(599.072266 0)"/>
    <use xlink:href="#DejaVuSans-Oblique-73" transform="translate(662.451172 0)"/>
    <use xlink:href="#DejaVuSans-Oblique-74" transform="translate(714.550781 0)"/>
    <use xlink:href="#DejaVuSans-Oblique-72" transform="translate(753.759766 0)"/>
    <use xlink:href="#DejaVuSans-Oblique-61" transform="translate(794.873047 0)"/>
    <use xlink:href="#DejaVuSans-Oblique-74" transform="translate(856.152344 0)"/>
    <use xlink:href="#DejaVuSans-Oblique-69" transform="translate(895.361328 0)"/>
    <use xlink:href="#DejaVuSans-Oblique-6f" transform="translate(923.144531 0)"/>
    <use xlink:href="#DejaVuSans-Oblique-6e" transform="translate(984.326172 0)"/>
    <use xlink:href="#DejaVuSans-Oblique-3a" transform="translate(1047.705078 0)"/>
    <use xlink:href="#DejaVuSans-Oblique-20" transform="translate(1081.396484 0)"/>
    <use xlink:href="#DejaVuSans-Oblique-69" transform="translate(1113.183594 0)"/>
    <use xlink:href="#DejaVuSans-Oblique-64" transform="translate(1140.966797 0)"/>
    <use xlink:href="#DejaVuSans-Oblique-65" transform="translate(1204.443359 0)"/>
    <use xlink:href="#DejaVuSans-Oblique-61" transform="translate(1265.966797 0)"/>
    <use xlink:href="#DejaVuSans-Oblique-6c" transform="translate(1327.246094 0)"/>
    <use xlink:href="#DejaVuSans-Oblique-20" transform="translate(1355.029297 0)"/>
    <use xlink:href="#DejaVuSans-Oblique-69" transform="translate(1386.816406 0)"/>
    <use xlink:href="#DejaVuSans-Oblique-73" transform="translate(1414.599609 0)"/>
    <use xlink:href="#DejaVuSans-Oblique-6f" transform="translate(1466.699219 0)"/>
    <use xlink:href="#DejaVuSans-Oblique-74" transform="translate(1527.880859 0)"/>
    <use xlink:href="#DejaVuSans-Oblique-72" transform="translate(1567.089844 0)"/>
    <use xlink:href="#DejaVuSans-Oblique-6f" transform="translate(1608.203125 0)"/>
    <use xlink:href="#DejaVuSans-Oblique-70" transform="translate(1669.384766 0)"/>
    <use xlink:href="#DejaVuSans-Oblique-69" transform="translate(1732.861328 0)"/>
    <use xlink:href="#DejaVuSans-Oblique-63" transform="translate(1760.644531 0)"/>
    <use xlink:href="#DejaVuSans-Oblique-20" transform="translate(1815.625 0)"/>
    <use xlink:href="#DejaVuSans-Oblique-65" transform="translate(1847.412109 0)"/>
    <use xlink:href="#DejaVuSans-Oblique-6c" transform="translate(1908.935547 0)"/>
    <use xlink:href="#DejaVuSans-Oblique-65" transform="translate(1936.71875 0)"/>
    <use xlink:href="#DejaVuSans-Oblique-6d" transform="translate(1998.242188 0)"/>
    <use xlink:href="#DejaVuSans-Oblique-65" transform="translate(2095.654297 0)"/>
    <use xlink:href="#DejaVuSans-Oblique-6e" transform="translate(2157.177734 0)"/>
    <use xlink:href="#DejaVuSans-Oblique-74" transform="translate(2220.556641 0)"/>
    <use xlink:href="#DejaVuSans-Oblique-73" transform="translate(2259.765625 0)"/>
    <use xlink:href="#DejaVuSans-Oblique-2c" transform="translate(2311.865234 0)"/>
    <use xlink:href="#DejaVuSans-Oblique-20" transform="translate(2343.652344 0)"/>
    <use xlink:href="#DejaVuSans-Oblique-61" transform="translate(2375.439453 0)"/>
    <use xlink:href="#DejaVuSans-Oblique-72" transform="translate(2436.71875 0)"/>
    <use xlink:href="#DejaVuSans-Oblique-72" transform="translate(2477.832031 0)"/>
    <use xlink:href="#DejaVuSans-Oblique-61" transform="translate(2518.945312 0)"/>
    <use xlink:href="#DejaVuSans-Oblique-79" transform="translate(2580.224609 0)"/>
    <use xlink:href="#DejaVuSans-Oblique-20" transform="translate(2639.404297 0)"/>
    <use xlink:href="#DejaVuSans-Oblique-66" transform="translate(2671.191406 0)"/>
    <use xlink:href="#DejaVuSans-Oblique-61" transform="translate(2706.396484 0)"/>
    <use xlink:href="#DejaVuSans-Oblique-63" transform="translate(2767.675781 0)"/>
    <use xlink:href="#DejaVuSans-Oblique-74" transform="translate(2822.65625 0)"/>
    <use xlink:href="#DejaVuSans-Oblique-6f" transform="translate(2861.865234 0)"/>
    <use xlink:href="#DejaVuSans-Oblique-72" transform="translate(2923.046875 0)"/>
    <use xlink:href="#DejaVuSans-Oblique-20" transform="translate(2964.160156 0)"/>
    <use xlink:href="#DejaVuSans-Oblique-6f" transform="translate(2995.947266 0)"/>
    <use xlink:href="#DejaVuSans-Oblique-6e" transform="translate(3057.128906 0)"/>
    <use xlink:href="#DejaVuSans-Oblique-6c" transform="translate(3120.507812 0)"/>
    <use xlink:href="#DejaVuSans-Oblique-79" transform="translate(3148.291016 0)"/>
    <use xlink:href="#DejaVuSans-Oblique-2c" transform="translate(3199.720703 0)"/>
    <use xlink:href="#DejaVuSans-Oblique-20" transform="translate(3231.507812 0)"/>
    <use xlink:href="#DejaVuSans-Oblique-6e" transform="translate(3263.294922 0)"/>
    <use xlink:href="#DejaVuSans-Oblique-6f" transform="translate(3326.673828 0)"/>
    <use xlink:href="#DejaVuSans-Oblique-20" transform="translate(3387.855469 0)"/>
    <use xlink:href="#DejaVuSans-Oblique-63" transform="translate(3419.642578 0)"/>
    <use xlink:href="#DejaVuSans-Oblique-6f" transform="translate(3474.623047 0)"/>
    <use xlink:href="#DejaVuSans-Oblique-75" transform="translate(3535.804688 0)"/>
    <use xlink:href="#DejaVuSans-Oblique-70" transform="translate(3599.183594 0)"/>
    <use xlink:href="#DejaVuSans-Oblique-6c" transform="translate(3662.660156 0)"/>
    <use xlink:href="#DejaVuSans-Oblique-69" transform="translate(3690.443359 0)"/>
    <use xlink:href="#DejaVuSans-Oblique-6e" transform="translate(3718.226562 0)"/>
    <use xlink:href="#DejaVuSans-Oblique-67" transform="translate(3781.605469 0)"/>
   </g>
  </g>
 </g>
 <defs>
  <clipPath id="p9ae05815f2">
   <rect x="49.07" y="22.92" width="370.45" height="194.10384"/>
  </clipPath>
 </defs>
</svg>
